<svg width="519" height="282" viewBox="0 0 519 282" fill="none" xmlns="http://www.w3.org/2000/svg">
<mask id="mask0_556_153" style="mask-type:alpha" maskUnits="userSpaceOnUse" x="0" y="0" width="519" height="282">
<rect width="519" height="282" fill="#C4C4C4"/>
</mask>
<g mask="url(#mask0_556_153)">
<path d="M64.7897 35.5653C66.1767 25.4485 79.4009 22.5168 84.9334 31.0996L85.9054 32.6074C87.6448 35.3058 90.4763 37.1097 93.6569 37.5457L95.4343 37.7894C105.551 39.1763 108.483 52.4005 99.9001 57.933L98.3922 58.905C95.6938 60.6444 93.8899 63.4759 93.4539 66.6566L93.2102 68.434C91.8233 78.5508 78.5991 81.4825 73.0666 72.8997L72.0946 71.3918C70.3552 68.6934 67.5237 66.8896 64.343 66.4535L62.5656 66.2099C52.4488 64.8229 49.5171 51.5988 58.0999 46.0662L59.6078 45.0942C62.3062 43.3548 64.11 40.5234 64.5461 37.3427L64.7897 35.5653Z" fill="#FF42A7"/>
<path d="M208.916 210.986C217.104 205.513 227.806 212.731 225.798 222.373L223.214 234.784C223.012 235.758 222.942 236.755 223.007 237.748L223.839 250.398C224.485 260.226 212.882 265.884 205.536 259.325L196.08 250.882C195.337 250.219 194.509 249.66 193.616 249.22L182.245 243.615C173.412 239.261 174.312 226.384 183.666 223.301L195.706 219.333C196.651 219.022 197.55 218.584 198.377 218.031L208.916 210.986Z" fill="#FF42A7"/>
<path d="M270.463 31.2738C273.15 23.0039 284.85 23.0039 287.537 31.2738V31.2738C288.739 34.9722 292.185 37.4762 296.074 37.4762V37.4762C304.769 37.4762 308.385 48.6032 301.35 53.7143V53.7143C298.204 56 296.887 60.0516 298.089 63.75V63.75C300.776 72.0199 291.311 78.8968 284.276 73.7857V73.7857C281.13 71.5 276.87 71.5 273.724 73.7857V73.7857C266.689 78.8968 257.224 72.0199 259.911 63.75V63.75C261.113 60.0516 259.796 56 256.65 53.7143V53.7143C249.615 48.6032 253.231 37.4762 261.926 37.4762V37.4762C265.815 37.4762 269.261 34.9722 270.463 31.2738V31.2738Z" fill="#FF42A7"/>
<rect x="15" y="102" width="177" height="90" rx="22" fill="#2A2A37"/>
<rect x="331" y="53" width="177" height="198" rx="22" fill="#FF42A7"/>
<path d="M63.54 133.14H44.82V141.42C45.62 140.54 46.74 139.82 48.18 139.26C49.62 138.7 51.18 138.42 52.86 138.42C55.86 138.42 58.34 139.1 60.3 140.46C62.3 141.82 63.76 143.58 64.68 145.74C65.6 147.9 66.06 150.24 66.06 152.76C66.06 157.44 64.74 161.16 62.1 163.92C59.46 166.64 55.74 168 50.94 168C47.74 168 44.96 167.46 42.6 166.38C40.24 165.26 38.42 163.72 37.14 161.76C35.86 159.8 35.16 157.54 35.04 154.98H45.06C45.3 156.22 45.88 157.26 46.8 158.1C47.72 158.9 48.98 159.3 50.58 159.3C52.46 159.3 53.86 158.7 54.78 157.5C55.7 156.3 56.16 154.7 56.16 152.7C56.16 150.74 55.68 149.24 54.72 148.2C53.76 147.16 52.36 146.64 50.52 146.64C49.16 146.64 48.04 146.98 47.16 147.66C46.28 148.3 45.7 149.16 45.42 150.24H35.52V124.14H63.54V133.14ZM133.158 125.88V168H122.898V142.74L113.478 168H105.198L95.7183 142.68V168H85.4583V125.88H97.5783L109.398 155.04L121.098 125.88H133.158ZM166.036 146.4C168.476 146.92 170.436 148.14 171.916 150.06C173.396 151.94 174.136 154.1 174.136 156.54C174.136 160.06 172.896 162.86 170.416 164.94C167.976 166.98 164.556 168 160.156 168H140.536V125.88H159.496C163.776 125.88 167.116 126.86 169.516 128.82C171.956 130.78 173.176 133.44 173.176 136.8C173.176 139.28 172.516 141.34 171.196 142.98C169.916 144.62 168.196 145.76 166.036 146.4ZM150.796 142.92H157.516C159.196 142.92 160.476 142.56 161.356 141.84C162.276 141.08 162.736 139.98 162.736 138.54C162.736 137.1 162.276 136 161.356 135.24C160.476 134.48 159.196 134.1 157.516 134.1H150.796V142.92ZM158.356 159.72C160.076 159.72 161.396 159.34 162.316 158.58C163.276 157.78 163.756 156.64 163.756 155.16C163.756 153.68 163.256 152.52 162.256 151.68C161.296 150.84 159.956 150.42 158.236 150.42H150.796V159.72H158.356Z" fill="white"/>
<path d="M376.168 93.039V78.57H401.375V145H385.177V93.039H376.168ZM412.02 110.875C412.02 100.44 414.022 92.22 418.026 86.214C422.091 80.208 428.613 77.205 437.591 77.205C446.57 77.205 453.061 80.208 457.065 86.214C461.13 92.22 463.162 100.44 463.162 110.875C463.162 121.431 461.13 129.712 457.065 135.718C453.061 141.724 446.57 144.727 437.591 144.727C428.613 144.727 422.091 141.724 418.026 135.718C414.022 129.712 412.02 121.431 412.02 110.875ZM447.874 110.875C447.874 104.748 447.207 100.046 445.872 96.77C444.538 93.4333 441.777 91.765 437.591 91.765C433.405 91.765 430.645 93.4333 429.31 96.77C427.976 100.046 427.308 104.748 427.308 110.875C427.308 115 427.551 118.428 428.036 121.158C428.522 123.827 429.492 126.011 430.948 127.71C432.465 129.348 434.679 130.167 437.591 130.167C440.503 130.167 442.687 129.348 444.143 127.71C445.66 126.011 446.661 123.827 447.146 121.158C447.632 118.428 447.874 115 447.874 110.875ZM426.727 162.118V226H411.166V187.689L396.879 226H384.321L369.943 187.598V226H354.382V162.118H372.764L390.691 206.344L408.436 162.118H426.727ZM476.592 193.24C480.293 194.029 483.265 195.879 485.51 198.791C487.755 201.642 488.877 204.918 488.877 208.619C488.877 213.958 486.996 218.204 483.235 221.359C479.534 224.453 474.347 226 467.674 226H437.917V162.118H466.673C473.164 162.118 478.23 163.604 481.87 166.577C485.571 169.55 487.421 173.584 487.421 178.68C487.421 182.441 486.42 185.566 484.418 188.053C482.477 190.54 479.868 192.269 476.592 193.24ZM453.478 187.962H463.67C466.218 187.962 468.159 187.416 469.494 186.324C470.889 185.171 471.587 183.503 471.587 181.319C471.587 179.135 470.889 177.467 469.494 176.314C468.159 175.161 466.218 174.585 463.67 174.585H453.478V187.962ZM464.944 213.442C467.553 213.442 469.555 212.866 470.95 211.713C472.406 210.5 473.134 208.771 473.134 206.526C473.134 204.281 472.376 202.522 470.859 201.248C469.403 199.974 467.371 199.337 464.762 199.337H453.478V213.442H464.944Z" fill="white"/>
<path d="M217 141C213.686 141 211 143.686 211 147C211 150.314 213.686 153 217 153V141ZM310.243 151.243C312.586 148.899 312.586 145.101 310.243 142.757L272.059 104.574C269.716 102.23 265.917 102.23 263.574 104.574C261.23 106.917 261.23 110.716 263.574 113.059L297.515 147L263.574 180.941C261.23 183.284 261.23 187.083 263.574 189.426C265.917 191.77 269.716 191.77 272.059 189.426L310.243 151.243ZM217 153H306V141H217V153Z" fill="#FF42A7"/>
</g>
</svg>
