<svg width="519" height="282" viewBox="0 0 519 282" fill="none" xmlns="http://www.w3.org/2000/svg">
<mask id="mask0_2015_2" style="mask-type:alpha" maskUnits="userSpaceOnUse" x="0" y="0" width="519" height="282">
<rect width="519" height="282" fill="#C4C4C4"/>
</mask>
<g mask="url(#mask0_2015_2)">
<path d="M112.512 217.733C106.307 204.239 120.239 190.307 133.733 196.512L164.212 210.527C168.455 212.478 173.338 212.478 177.581 210.527L208.059 196.512C221.554 190.307 235.486 204.239 229.281 217.733L215.266 248.212C213.315 252.455 213.315 257.338 215.266 261.581L229.281 292.059C235.486 305.554 221.554 319.486 208.059 313.281L177.581 299.266C173.338 297.315 168.455 297.315 164.212 299.266L133.733 313.281C120.239 319.486 106.307 305.554 112.512 292.059L126.527 261.581C128.478 257.338 128.478 252.455 126.527 248.212L112.512 217.733Z" fill="#FF42A7"/>
<path d="M-36.429 150.714C-38.436 134.369 -18.354 125.004 -7.12268 137.048L10.6576 156.115C15.6804 161.502 23.6003 163.041 30.2751 159.929L53.9033 148.911C68.8287 141.951 83.9403 158.156 75.9564 172.56L63.317 195.362C59.7464 201.803 60.7297 209.811 65.7525 215.197L83.5328 234.265C94.7641 246.309 84.0217 265.688 67.856 262.546L42.2641 257.572C35.0346 256.166 27.7224 259.576 24.1519 266.017L11.5125 288.82C3.52848 303.223 -18.2224 298.995 -20.2294 282.65L-23.4066 256.773C-24.3041 249.463 -29.8066 243.562 -37.0361 242.157L-62.628 237.183C-78.7937 234.04 -81.4941 212.048 -66.5687 205.088L-42.9405 194.07C-36.2657 190.957 -32.3542 183.901 -33.2517 176.591L-36.429 150.714Z" fill="#FF42A7"/>
<path d="M117.332 -54.2401C122.421 -69.9024 144.579 -69.9024 149.668 -54.2401L159.656 -23.5005C161.932 -16.4961 168.459 -11.7538 175.824 -11.7538L208.145 -11.7538C224.614 -11.7538 231.461 9.31971 218.138 18.9995L191.989 37.9977C186.031 42.3266 183.538 49.9999 185.813 57.0043L195.801 87.7439C200.89 103.406 182.964 116.43 169.641 106.751L143.492 87.7523C137.534 83.4234 129.466 83.4234 123.508 87.7523L97.3589 106.75C84.0358 116.43 66.1096 103.406 71.1986 87.7439L81.1866 57.0043C83.4624 49.9999 80.9692 42.3266 75.0109 37.9977L48.8622 18.9995C35.5391 9.31971 42.3863 -11.7538 58.8546 -11.7538L91.1762 -11.7538C98.541 -11.7538 105.068 -16.4961 107.344 -23.5005L117.332 -54.2401Z" fill="#FF42A7"/>
<path d="M519.631 -23.8271C538.932 -32.51 558.725 -12.7167 550.042 6.58418L535.382 39.1715C532.682 45.1726 532.682 52.0427 535.382 58.0438L550.042 90.6311C558.725 109.932 538.932 129.725 519.631 121.042L487.044 106.382C481.042 103.683 474.172 103.683 468.171 106.382L435.584 121.042C416.283 129.725 396.49 109.932 405.173 90.6311L419.833 58.0438C422.532 52.0427 422.532 45.1726 419.833 39.1715L405.173 6.58421C396.49 -12.7167 416.283 -32.51 435.584 -23.8271L468.171 -9.16705C474.172 -6.46733 481.042 -6.46732 487.044 -9.16705L519.631 -23.8271Z" fill="#FF42A7"/>
<path d="M444.426 173.997C454.997 162.661 473.898 171.475 472.009 186.859L469.164 210.026C468.319 216.906 472.001 223.547 478.283 226.477L499.437 236.341C513.485 242.892 510.943 263.591 495.728 266.548L472.816 271.002C466.012 272.324 460.833 277.878 459.988 284.758L457.144 307.925C455.255 323.309 434.783 327.288 427.269 313.732L415.953 293.317C412.593 287.255 405.71 284.046 398.906 285.368L375.994 289.822C360.779 292.78 350.669 274.54 361.239 263.204L377.158 246.133C381.885 241.064 382.811 233.527 379.45 227.465L368.134 207.05C360.62 193.494 374.843 178.242 388.89 184.792L410.044 194.656C416.326 197.586 423.78 196.137 428.508 191.067L444.426 173.997Z" fill="#FF42A7"/>
<rect x="171" y="6" width="253" height="79" rx="8" fill="#2A2A37"/>
<rect x="95" y="6" width="70" height="31" rx="8" fill="#2A2A37"/>
<rect x="95" y="43" width="70" height="86" rx="8" fill="#2A2A37"/>
<rect x="95" y="250" width="70" height="26" rx="8" fill="#2A2A37"/>
<rect x="171" y="91" width="253" height="79" rx="8" fill="#2A2A37"/>
<rect x="171" y="176" width="253" height="79" rx="8" fill="#2A2A37"/>
<rect x="171" y="261" width="253" height="79" rx="8" fill="#2A2A37"/>
</g>
</svg>
