<svg width="519" height="282" viewBox="0 0 519 282" fill="none" xmlns="http://www.w3.org/2000/svg">
<mask id="mask0_556_182" style="mask-type:alpha" maskUnits="userSpaceOnUse" x="0" y="0" width="519" height="282">
<rect width="519" height="282" fill="#C4C4C4"/>
</mask>
<g mask="url(#mask0_556_182)">
<path d="M110.991 11.516V18.07H100.203V52H92.0835V18.07H81.2955V11.516H110.991ZM135.012 19.404C137.448 19.404 139.613 19.9453 141.508 21.028C143.403 22.072 144.872 23.638 145.916 25.726C146.999 27.7753 147.54 30.25 147.54 33.15V52H139.42V34.252C139.42 31.7 138.782 29.7473 137.506 28.394C136.23 27.002 134.49 26.306 132.286 26.306C130.043 26.306 128.265 27.002 126.95 28.394C125.674 29.7473 125.036 31.7 125.036 34.252V52H116.916V9.08H125.036V23.87C126.08 22.478 127.472 21.3953 129.212 20.622C130.952 19.81 132.885 19.404 135.012 19.404ZM159.38 16.04C157.949 16.04 156.75 15.5953 155.784 14.706C154.856 13.778 154.392 12.6373 154.392 11.284C154.392 9.93066 154.856 8.80933 155.784 7.92C156.75 6.992 157.949 6.528 159.38 6.528C160.81 6.528 161.99 6.992 162.918 7.92C163.884 8.80933 164.368 9.93066 164.368 11.284C164.368 12.6373 163.884 13.778 162.918 14.706C161.99 15.5953 160.81 16.04 159.38 16.04ZM163.382 19.868V52H155.262V19.868H163.382ZM183.7 52.522C181.071 52.522 178.712 52.058 176.624 51.13C174.536 50.1633 172.874 48.868 171.636 47.244C170.438 45.62 169.78 43.822 169.664 41.85H177.842C177.997 43.0873 178.596 44.112 179.64 44.924C180.723 45.736 182.057 46.142 183.642 46.142C185.189 46.142 186.388 45.8327 187.238 45.214C188.128 44.5953 188.572 43.8027 188.572 42.836C188.572 41.792 188.031 41.0187 186.948 40.516C185.904 39.9747 184.222 39.3947 181.902 38.776C179.505 38.196 177.533 37.5967 175.986 36.978C174.478 36.3593 173.164 35.412 172.042 34.136C170.96 32.86 170.418 31.1393 170.418 28.974C170.418 27.1953 170.921 25.5713 171.926 24.102C172.97 22.6327 174.44 21.4727 176.334 20.622C178.268 19.7713 180.53 19.346 183.12 19.346C186.948 19.346 190.003 20.3127 192.284 22.246C194.566 24.1407 195.822 26.712 196.054 29.96H188.282C188.166 28.684 187.625 27.6787 186.658 26.944C185.73 26.1707 184.474 25.784 182.888 25.784C181.419 25.784 180.278 26.0547 179.466 26.596C178.693 27.1373 178.306 27.8913 178.306 28.858C178.306 29.9407 178.848 30.772 179.93 31.352C181.013 31.8933 182.695 32.454 184.976 33.034C187.296 33.614 189.21 34.2133 190.718 34.832C192.226 35.4507 193.522 36.4173 194.604 37.732C195.726 39.008 196.306 40.7093 196.344 42.836C196.344 44.692 195.822 46.3547 194.778 47.824C193.773 49.2933 192.304 50.4533 190.37 51.304C188.476 52.116 186.252 52.522 183.7 52.522ZM220.948 16.04C219.517 16.04 218.319 15.5953 217.352 14.706C216.424 13.778 215.96 12.6373 215.96 11.284C215.96 9.93066 216.424 8.80933 217.352 7.92C218.319 6.992 219.517 6.528 220.948 6.528C222.379 6.528 223.558 6.992 224.486 7.92C225.453 8.80933 225.936 9.93066 225.936 11.284C225.936 12.6373 225.453 13.778 224.486 14.706C223.558 15.5953 222.379 16.04 220.948 16.04ZM224.95 19.868V52H216.83V19.868H224.95ZM245.269 52.522C242.639 52.522 240.281 52.058 238.193 51.13C236.105 50.1633 234.442 48.868 233.205 47.244C232.006 45.62 231.349 43.822 231.233 41.85H239.411C239.565 43.0873 240.165 44.112 241.209 44.924C242.291 45.736 243.625 46.142 245.211 46.142C246.757 46.142 247.956 45.8327 248.807 45.214C249.696 44.5953 250.141 43.8027 250.141 42.836C250.141 41.792 249.599 41.0187 248.517 40.516C247.473 39.9747 245.791 39.3947 243.471 38.776C241.073 38.196 239.101 37.5967 237.555 36.978C236.047 36.3593 234.732 35.412 233.611 34.136C232.528 32.86 231.987 31.1393 231.987 28.974C231.987 27.1953 232.489 25.5713 233.495 24.102C234.539 22.6327 236.008 21.4727 237.903 20.622C239.836 19.7713 242.098 19.346 244.689 19.346C248.517 19.346 251.571 20.3127 253.853 22.246C256.134 24.1407 257.391 26.712 257.623 29.96H249.851C249.735 28.684 249.193 27.6787 248.227 26.944C247.299 26.1707 246.042 25.784 244.457 25.784C242.987 25.784 241.847 26.0547 241.035 26.596C240.261 27.1373 239.875 27.8913 239.875 28.858C239.875 29.9407 240.416 30.772 241.499 31.352C242.581 31.8933 244.263 32.454 246.545 33.034C248.865 33.614 250.779 34.2133 252.287 34.832C253.795 35.4507 255.09 36.4173 256.173 37.732C257.294 39.008 257.874 40.7093 257.913 42.836C257.913 44.692 257.391 46.3547 256.347 47.824C255.341 49.2933 253.872 50.4533 251.939 51.304C250.044 52.116 247.821 52.522 245.269 52.522ZM290.694 52.522C288.065 52.522 285.706 52.058 283.618 51.13C281.53 50.1633 279.868 48.868 278.63 47.244C277.432 45.62 276.774 43.822 276.658 41.85H284.836C284.991 43.0873 285.59 44.112 286.634 44.924C287.717 45.736 289.051 46.142 290.636 46.142C292.183 46.142 293.382 45.8327 294.232 45.214C295.122 44.5953 295.566 43.8027 295.566 42.836C295.566 41.792 295.025 41.0187 293.942 40.516C292.898 39.9747 291.216 39.3947 288.896 38.776C286.499 38.196 284.527 37.5967 282.98 36.978C281.472 36.3593 280.158 35.412 279.036 34.136C277.954 32.86 277.412 31.1393 277.412 28.974C277.412 27.1953 277.915 25.5713 278.92 24.102C279.964 22.6327 281.434 21.4727 283.328 20.622C285.262 19.7713 287.524 19.346 290.114 19.346C293.942 19.346 296.997 20.3127 299.278 22.246C301.56 24.1407 302.816 26.712 303.048 29.96H295.276C295.16 28.684 294.619 27.6787 293.652 26.944C292.724 26.1707 291.468 25.784 289.882 25.784C288.413 25.784 287.272 26.0547 286.46 26.596C285.687 27.1373 285.3 27.8913 285.3 28.858C285.3 29.9407 285.842 30.772 286.924 31.352C288.007 31.8933 289.689 32.454 291.97 33.034C294.29 33.614 296.204 34.2133 297.712 34.832C299.22 35.4507 300.516 36.4173 301.598 37.732C302.72 39.008 303.3 40.7093 303.338 42.836C303.338 44.692 302.816 46.3547 301.772 47.824C300.767 49.2933 299.298 50.4533 297.364 51.304C295.47 52.116 293.246 52.522 290.694 52.522ZM324.272 52.522C321.179 52.522 318.395 51.8453 315.92 50.492C313.445 49.1 311.493 47.1473 310.062 44.634C308.67 42.1207 307.974 39.2207 307.974 35.934C307.974 32.6473 308.689 29.7473 310.12 27.234C311.589 24.7207 313.581 22.7873 316.094 21.434C318.607 20.042 321.411 19.346 324.504 19.346C327.597 19.346 330.401 20.042 332.914 21.434C335.427 22.7873 337.399 24.7207 338.83 27.234C340.299 29.7473 341.034 32.6473 341.034 35.934C341.034 39.2207 340.28 42.1207 338.772 44.634C337.303 47.1473 335.292 49.1 332.74 50.492C330.227 51.8453 327.404 52.522 324.272 52.522ZM324.272 45.446C325.741 45.446 327.114 45.098 328.39 44.402C329.705 43.6673 330.749 42.5847 331.522 41.154C332.295 39.7233 332.682 37.9833 332.682 35.934C332.682 32.8793 331.87 30.54 330.246 28.916C328.661 27.2533 326.708 26.422 324.388 26.422C322.068 26.422 320.115 27.2533 318.53 28.916C316.983 30.54 316.21 32.8793 316.21 35.934C316.21 38.9887 316.964 41.3473 318.472 43.01C320.019 44.634 321.952 45.446 324.272 45.446ZM386.894 19.404C390.838 19.404 394.009 20.622 396.406 23.058C398.842 25.4553 400.06 28.8193 400.06 33.15V52H391.94V34.252C391.94 31.7387 391.302 29.8247 390.026 28.51C388.75 27.1567 387.01 26.48 384.806 26.48C382.602 26.48 380.843 27.1567 379.528 28.51C378.252 29.8247 377.614 31.7387 377.614 34.252V52H369.494V34.252C369.494 31.7387 368.856 29.8247 367.58 28.51C366.304 27.1567 364.564 26.48 362.36 26.48C360.118 26.48 358.339 27.1567 357.024 28.51C355.748 29.8247 355.11 31.7387 355.11 34.252V52H346.99V19.868H355.11V23.754C356.154 22.4007 357.488 21.3373 359.112 20.564C360.775 19.7907 362.592 19.404 364.564 19.404C367.078 19.404 369.32 19.9453 371.292 21.028C373.264 22.072 374.792 23.58 375.874 25.552C376.918 23.696 378.426 22.2073 380.398 21.086C382.409 19.9647 384.574 19.404 386.894 19.404ZM437.636 35.238C437.636 36.398 437.558 37.442 437.404 38.37H413.914C414.107 40.69 414.919 42.5073 416.35 43.822C417.78 45.1367 419.54 45.794 421.628 45.794C424.644 45.794 426.79 44.4987 428.066 41.908H436.824C435.896 45.0013 434.117 47.5533 431.488 49.564C428.858 51.536 425.63 52.522 421.802 52.522C418.708 52.522 415.924 51.8453 413.45 50.492C411.014 49.1 409.1 47.1473 407.708 44.634C406.354 42.1207 405.678 39.2207 405.678 35.934C405.678 32.6087 406.354 29.6893 407.708 27.176C409.061 24.6627 410.956 22.7293 413.392 21.376C415.828 20.0227 418.631 19.346 421.802 19.346C424.856 19.346 427.582 20.0033 429.98 21.318C432.416 22.6327 434.291 24.508 435.606 26.944C436.959 29.3413 437.636 32.106 437.636 35.238ZM429.226 32.918C429.187 30.83 428.433 29.1673 426.964 27.93C425.494 26.654 423.696 26.016 421.57 26.016C419.559 26.016 417.858 26.6347 416.466 27.872C415.112 29.0707 414.281 30.7527 413.972 32.918H429.226ZM29.3417 73.08V116H21.2217V73.08H29.3417ZM51.6323 116.522C48.539 116.522 45.755 115.845 43.2803 114.492C40.8056 113.1 38.853 111.147 37.4223 108.634C36.0303 106.121 35.3343 103.221 35.3343 99.934C35.3343 96.6473 36.0496 93.7473 37.4803 91.234C38.9496 88.7207 40.941 86.7873 43.4543 85.434C45.9676 84.042 48.771 83.346 51.8643 83.346C54.9576 83.346 57.761 84.042 60.2743 85.434C62.7876 86.7873 64.7596 88.7207 66.1903 91.234C67.6596 93.7473 68.3943 96.6473 68.3943 99.934C68.3943 103.221 67.6403 106.121 66.1323 108.634C64.663 111.147 62.6523 113.1 60.1003 114.492C57.587 115.845 54.7643 116.522 51.6323 116.522ZM51.6323 109.446C53.1016 109.446 54.4743 109.098 55.7503 108.402C57.065 107.667 58.109 106.585 58.8823 105.154C59.6556 103.723 60.0423 101.983 60.0423 99.934C60.0423 96.8793 59.2303 94.54 57.6063 92.916C56.021 91.2533 54.0683 90.422 51.7483 90.422C49.4283 90.422 47.4756 91.2533 45.8903 92.916C44.3436 94.54 43.5703 96.8793 43.5703 99.934C43.5703 102.989 44.3243 105.347 45.8323 107.01C47.379 108.634 49.3123 109.446 51.6323 109.446ZM92.1566 83.404C95.9846 83.404 99.078 84.622 101.437 87.058C103.795 89.4553 104.975 92.8193 104.975 97.15V116H96.8546V98.252C96.8546 95.7 96.2166 93.7473 94.9406 92.394C93.6646 91.002 91.9246 90.306 89.7206 90.306C87.478 90.306 85.6993 91.002 84.3846 92.394C83.1086 93.7473 82.4706 95.7 82.4706 98.252V116H74.3506V83.868H82.4706V87.87C83.5533 86.478 84.926 85.3953 86.5886 84.622C88.29 83.81 90.146 83.404 92.1566 83.404ZM125.282 83.346C127.68 83.346 129.787 83.8293 131.604 84.796C133.422 85.724 134.852 86.942 135.896 88.45V83.868H144.074V116.232C144.074 119.209 143.475 121.858 142.276 124.178C141.078 126.537 139.28 128.393 136.882 129.746C134.485 131.138 131.585 131.834 128.182 131.834C123.62 131.834 119.869 130.771 116.93 128.644C114.03 126.517 112.387 123.617 112 119.944H120.062C120.488 121.413 121.396 122.573 122.788 123.424C124.219 124.313 125.94 124.758 127.95 124.758C130.309 124.758 132.223 124.043 133.692 122.612C135.162 121.22 135.896 119.093 135.896 116.232V111.244C134.852 112.752 133.402 114.009 131.546 115.014C129.729 116.019 127.641 116.522 125.282 116.522C122.576 116.522 120.101 115.826 117.858 114.434C115.616 113.042 113.837 111.089 112.522 108.576C111.246 106.024 110.608 103.105 110.608 99.818C110.608 96.57 111.246 93.6893 112.522 91.176C113.837 88.6627 115.596 86.7293 117.8 85.376C120.043 84.0227 122.537 83.346 125.282 83.346ZM135.896 99.934C135.896 97.962 135.51 96.28 134.736 94.888C133.963 93.4573 132.919 92.3747 131.604 91.64C130.29 90.8667 128.878 90.48 127.37 90.48C125.862 90.48 124.47 90.8473 123.194 91.582C121.918 92.3167 120.874 93.3993 120.062 94.83C119.289 96.222 118.902 97.8847 118.902 99.818C118.902 101.751 119.289 103.453 120.062 104.922C120.874 106.353 121.918 107.455 123.194 108.228C124.509 109.001 125.901 109.388 127.37 109.388C128.878 109.388 130.29 109.021 131.604 108.286C132.919 107.513 133.963 106.43 134.736 105.038C135.51 103.607 135.896 101.906 135.896 99.934ZM381.055 225.538V241.082C381.055 242.165 381.306 242.957 381.809 243.46C382.35 243.924 383.239 244.156 384.477 244.156H388.247V251H383.143C376.299 251 372.877 247.675 372.877 241.024V225.538H369.049V218.868H372.877V210.922H381.055V218.868H388.247V225.538H381.055ZM423.957 234.238C423.957 235.398 423.88 236.442 423.725 237.37H400.235C400.428 239.69 401.24 241.507 402.671 242.822C404.102 244.137 405.861 244.794 407.949 244.794C410.965 244.794 413.111 243.499 414.387 240.908H423.145C422.217 244.001 420.438 246.553 417.809 248.564C415.18 250.536 411.951 251.522 408.123 251.522C405.03 251.522 402.246 250.845 399.771 249.492C397.335 248.1 395.421 246.147 394.029 243.634C392.676 241.121 391.999 238.221 391.999 234.934C391.999 231.609 392.676 228.689 394.029 226.176C395.382 223.663 397.277 221.729 399.713 220.376C402.149 219.023 404.952 218.346 408.123 218.346C411.178 218.346 413.904 219.003 416.301 220.318C418.737 221.633 420.612 223.508 421.927 225.944C423.28 228.341 423.957 231.106 423.957 234.238ZM415.547 231.918C415.508 229.83 414.754 228.167 413.285 226.93C411.816 225.654 410.018 225.016 407.891 225.016C405.88 225.016 404.179 225.635 402.787 226.872C401.434 228.071 400.602 229.753 400.293 231.918H415.547ZM447.632 251L441.02 241.024L435.162 251H426.462L436.96 234.876L426.346 218.868H435.51L442.064 228.786L447.98 218.868H456.68L446.124 234.876L456.796 251H447.632ZM470.66 225.538V241.082C470.66 242.165 470.911 242.957 471.414 243.46C471.955 243.924 472.845 244.156 474.082 244.156H477.852V251H472.748C465.904 251 462.482 247.675 462.482 241.024V225.538H458.654V218.868H462.482V210.922H470.66V218.868H477.852V225.538H470.66Z" fill="white"/>
<path d="M164.591 83.346C166.988 83.346 169.096 83.8293 170.913 84.796C172.73 85.724 174.161 86.942 175.205 88.45V83.868H183.383V116.232C183.383 119.209 182.784 121.858 181.585 124.178C180.386 126.537 178.588 128.393 176.191 129.746C173.794 131.138 170.894 131.834 167.491 131.834C162.928 131.834 159.178 130.771 156.239 128.644C153.339 126.517 151.696 123.617 151.309 119.944H159.371C159.796 121.413 160.705 122.573 162.097 123.424C163.528 124.313 165.248 124.758 167.259 124.758C169.618 124.758 171.532 124.043 173.001 122.612C174.47 121.22 175.205 119.093 175.205 116.232V111.244C174.161 112.752 172.711 114.009 170.855 115.014C169.038 116.019 166.95 116.522 164.591 116.522C161.884 116.522 159.41 115.826 157.167 114.434C154.924 113.042 153.146 111.089 151.831 108.576C150.555 106.024 149.917 103.105 149.917 99.818C149.917 96.57 150.555 93.6893 151.831 91.176C153.146 88.6627 154.905 86.7293 157.109 85.376C159.352 84.0227 161.846 83.346 164.591 83.346ZM175.205 99.934C175.205 97.962 174.818 96.28 174.045 94.888C173.272 93.4573 172.228 92.3747 170.913 91.64C169.598 90.8667 168.187 90.48 166.679 90.48C165.171 90.48 163.779 90.8473 162.503 91.582C161.227 92.3167 160.183 93.3993 159.371 94.83C158.598 96.222 158.211 97.8847 158.211 99.818C158.211 101.751 158.598 103.453 159.371 104.922C160.183 106.353 161.227 107.455 162.503 108.228C163.818 109.001 165.21 109.388 166.679 109.388C168.187 109.388 169.598 109.021 170.913 108.286C172.228 107.513 173.272 106.43 174.045 105.038C174.818 103.607 175.205 101.906 175.205 99.934ZM203.9 83.346C206.297 83.346 208.404 83.8293 210.222 84.796C212.039 85.724 213.47 86.942 214.514 88.45V83.868H222.692V116.232C222.692 119.209 222.092 121.858 220.894 124.178C219.695 126.537 217.897 128.393 215.5 129.746C213.102 131.138 210.202 131.834 206.8 131.834C202.237 131.834 198.486 130.771 195.548 128.644C192.648 126.517 191.004 123.617 190.618 119.944H198.68C199.105 121.413 200.014 122.573 201.406 123.424C202.836 124.313 204.557 124.758 206.568 124.758C208.926 124.758 210.84 124.043 212.31 122.612C213.779 121.22 214.514 119.093 214.514 116.232V111.244C213.47 112.752 212.02 114.009 210.164 115.014C208.346 116.019 206.258 116.522 203.9 116.522C201.193 116.522 198.718 115.826 196.476 114.434C194.233 113.042 192.454 111.089 191.14 108.576C189.864 106.024 189.226 103.105 189.226 99.818C189.226 96.57 189.864 93.6893 191.14 91.176C192.454 88.6627 194.214 86.7293 196.418 85.376C198.66 84.0227 201.154 83.346 203.9 83.346ZM214.514 99.934C214.514 97.962 214.127 96.28 213.354 94.888C212.58 93.4573 211.536 92.3747 210.222 91.64C208.907 90.8667 207.496 90.48 205.988 90.48C204.48 90.48 203.088 90.8473 201.812 91.582C200.536 92.3167 199.492 93.3993 198.68 94.83C197.906 96.222 197.52 97.8847 197.52 99.818C197.52 101.751 197.906 103.453 198.68 104.922C199.492 106.353 200.536 107.455 201.812 108.228C203.126 109.001 204.518 109.388 205.988 109.388C207.496 109.388 208.907 109.021 210.222 108.286C211.536 107.513 212.58 106.43 213.354 105.038C214.127 103.607 214.514 101.906 214.514 99.934ZM243.208 83.346C245.605 83.346 247.713 83.8293 249.53 84.796C251.347 85.724 252.778 86.942 253.822 88.45V83.868H262V116.232C262 119.209 261.401 121.858 260.202 124.178C259.003 126.537 257.205 128.393 254.808 129.746C252.411 131.138 249.511 131.834 246.108 131.834C241.545 131.834 237.795 130.771 234.856 128.644C231.956 126.517 230.313 123.617 229.926 119.944H237.988C238.413 121.413 239.322 122.573 240.714 123.424C242.145 124.313 243.865 124.758 245.876 124.758C248.235 124.758 250.149 124.043 251.618 122.612C253.087 121.22 253.822 119.093 253.822 116.232V111.244C252.778 112.752 251.328 114.009 249.472 115.014C247.655 116.019 245.567 116.522 243.208 116.522C240.501 116.522 238.027 115.826 235.784 114.434C233.541 113.042 231.763 111.089 230.448 108.576C229.172 106.024 228.534 103.105 228.534 99.818C228.534 96.57 229.172 93.6893 230.448 91.176C231.763 88.6627 233.522 86.7293 235.726 85.376C237.969 84.0227 240.463 83.346 243.208 83.346ZM253.822 99.934C253.822 97.962 253.435 96.28 252.662 94.888C251.889 93.4573 250.845 92.3747 249.53 91.64C248.215 90.8667 246.804 90.48 245.296 90.48C243.788 90.48 242.396 90.8473 241.12 91.582C239.844 92.3167 238.8 93.3993 237.988 94.83C237.215 96.222 236.828 97.8847 236.828 99.818C236.828 101.751 237.215 103.453 237.988 104.922C238.8 106.353 239.844 107.455 241.12 108.228C242.435 109.001 243.827 109.388 245.296 109.388C246.804 109.388 248.215 109.021 249.53 108.286C250.845 107.513 251.889 106.43 252.662 105.038C253.435 103.607 253.822 101.906 253.822 99.934ZM282.517 83.346C284.914 83.346 287.021 83.8293 288.839 84.796C290.656 85.724 292.087 86.942 293.131 88.45V83.868H301.309V116.232C301.309 119.209 300.709 121.858 299.511 124.178C298.312 126.537 296.514 128.393 294.117 129.746C291.719 131.138 288.819 131.834 285.417 131.834C280.854 131.834 277.103 130.771 274.165 128.644C271.265 126.517 269.621 123.617 269.235 119.944H277.297C277.722 121.413 278.631 122.573 280.023 123.424C281.453 124.313 283.174 124.758 285.185 124.758C287.543 124.758 289.457 124.043 290.927 122.612C292.396 121.22 293.131 119.093 293.131 116.232V111.244C292.087 112.752 290.637 114.009 288.781 115.014C286.963 116.019 284.875 116.522 282.517 116.522C279.81 116.522 277.335 115.826 275.093 114.434C272.85 113.042 271.071 111.089 269.757 108.576C268.481 106.024 267.843 103.105 267.843 99.818C267.843 96.57 268.481 93.6893 269.757 91.176C271.071 88.6627 272.831 86.7293 275.035 85.376C277.277 84.0227 279.771 83.346 282.517 83.346ZM293.131 99.934C293.131 97.962 292.744 96.28 291.971 94.888C291.197 93.4573 290.153 92.3747 288.839 91.64C287.524 90.8667 286.113 90.48 284.605 90.48C283.097 90.48 281.705 90.8473 280.429 91.582C279.153 92.3167 278.109 93.3993 277.297 94.83C276.523 96.222 276.137 97.8847 276.137 99.818C276.137 101.751 276.523 103.453 277.297 104.922C278.109 106.353 279.153 107.455 280.429 108.228C281.743 109.001 283.135 109.388 284.605 109.388C286.113 109.388 287.524 109.021 288.839 108.286C290.153 107.513 291.197 106.43 291.971 105.038C292.744 103.607 293.131 101.906 293.131 99.934ZM321.825 83.346C324.223 83.346 326.33 83.8293 328.147 84.796C329.965 85.724 331.395 86.942 332.439 88.45V83.868H340.617V116.232C340.617 119.209 340.018 121.858 338.819 124.178C337.621 126.537 335.823 128.393 333.425 129.746C331.028 131.138 328.128 131.834 324.725 131.834C320.163 131.834 316.412 130.771 313.473 128.644C310.573 126.517 308.93 123.617 308.543 119.944H316.605C317.031 121.413 317.939 122.573 319.331 123.424C320.762 124.313 322.483 124.758 324.493 124.758C326.852 124.758 328.766 124.043 330.235 122.612C331.705 121.22 332.439 119.093 332.439 116.232V111.244C331.395 112.752 329.945 114.009 328.089 115.014C326.272 116.019 324.184 116.522 321.825 116.522C319.119 116.522 316.644 115.826 314.401 114.434C312.159 113.042 310.38 111.089 309.065 108.576C307.789 106.024 307.151 103.105 307.151 99.818C307.151 96.57 307.789 93.6893 309.065 91.176C310.38 88.6627 312.139 86.7293 314.343 85.376C316.586 84.0227 319.08 83.346 321.825 83.346ZM332.439 99.934C332.439 97.962 332.053 96.28 331.279 94.888C330.506 93.4573 329.462 92.3747 328.147 91.64C326.833 90.8667 325.421 90.48 323.913 90.48C322.405 90.48 321.013 90.8473 319.737 91.582C318.461 92.3167 317.417 93.3993 316.605 94.83C315.832 96.222 315.445 97.8847 315.445 99.818C315.445 101.751 315.832 103.453 316.605 104.922C317.417 106.353 318.461 107.455 319.737 108.228C321.052 109.001 322.444 109.388 323.913 109.388C325.421 109.388 326.833 109.021 328.147 108.286C329.462 107.513 330.506 106.43 331.279 105.038C332.053 103.607 332.439 101.906 332.439 99.934ZM361.134 83.346C363.531 83.346 365.639 83.8293 367.456 84.796C369.273 85.724 370.704 86.942 371.748 88.45V83.868H379.926V116.232C379.926 119.209 379.327 121.858 378.128 124.178C376.929 126.537 375.131 128.393 372.734 129.746C370.337 131.138 367.437 131.834 364.034 131.834C359.471 131.834 355.721 130.771 352.782 128.644C349.882 126.517 348.239 123.617 347.852 119.944H355.914C356.339 121.413 357.248 122.573 358.64 123.424C360.071 124.313 361.791 124.758 363.802 124.758C366.161 124.758 368.075 124.043 369.544 122.612C371.013 121.22 371.748 119.093 371.748 116.232V111.244C370.704 112.752 369.254 114.009 367.398 115.014C365.581 116.019 363.493 116.522 361.134 116.522C358.427 116.522 355.953 115.826 353.71 114.434C351.467 113.042 349.689 111.089 348.374 108.576C347.098 106.024 346.46 103.105 346.46 99.818C346.46 96.57 347.098 93.6893 348.374 91.176C349.689 88.6627 351.448 86.7293 353.652 85.376C355.895 84.0227 358.389 83.346 361.134 83.346ZM371.748 99.934C371.748 97.962 371.361 96.28 370.588 94.888C369.815 93.4573 368.771 92.3747 367.456 91.64C366.141 90.8667 364.73 90.48 363.222 90.48C361.714 90.48 360.322 90.8473 359.046 91.582C357.77 92.3167 356.726 93.3993 355.914 94.83C355.141 96.222 354.754 97.8847 354.754 99.818C354.754 101.751 355.141 103.453 355.914 104.922C356.726 106.353 357.77 107.455 359.046 108.228C360.361 109.001 361.753 109.388 363.222 109.388C364.73 109.388 366.141 109.021 367.456 108.286C368.771 107.513 369.815 106.43 370.588 105.038C371.361 103.607 371.748 101.906 371.748 99.934ZM400.442 83.346C402.84 83.346 404.947 83.8293 406.764 84.796C408.582 85.724 410.012 86.942 411.056 88.45V83.868H419.234V116.232C419.234 119.209 418.635 121.858 417.436 124.178C416.238 126.537 414.44 128.393 412.042 129.746C409.645 131.138 406.745 131.834 403.342 131.834C398.78 131.834 395.029 130.771 392.09 128.644C389.19 126.517 387.547 123.617 387.16 119.944H395.222C395.648 121.413 396.556 122.573 397.948 123.424C399.379 124.313 401.1 124.758 403.11 124.758C405.469 124.758 407.383 124.043 408.852 122.612C410.322 121.22 411.056 119.093 411.056 116.232V111.244C410.012 112.752 408.562 114.009 406.706 115.014C404.889 116.019 402.801 116.522 400.442 116.522C397.736 116.522 395.261 115.826 393.018 114.434C390.776 113.042 388.997 111.089 387.682 108.576C386.406 106.024 385.768 103.105 385.768 99.818C385.768 96.57 386.406 93.6893 387.682 91.176C388.997 88.6627 390.756 86.7293 392.96 85.376C395.203 84.0227 397.697 83.346 400.442 83.346ZM411.056 99.934C411.056 97.962 410.67 96.28 409.896 94.888C409.123 93.4573 408.079 92.3747 406.764 91.64C405.45 90.8667 404.038 90.48 402.53 90.48C401.022 90.48 399.63 90.8473 398.354 91.582C397.078 92.3167 396.034 93.3993 395.222 94.83C394.449 96.222 394.062 97.8847 394.062 99.818C394.062 101.751 394.449 103.453 395.222 104.922C396.034 106.353 397.078 107.455 398.354 108.228C399.669 109.001 401.061 109.388 402.53 109.388C404.038 109.388 405.45 109.021 406.764 108.286C408.079 107.513 409.123 106.43 409.896 105.038C410.67 103.607 411.056 101.906 411.056 99.934ZM439.751 83.346C442.148 83.346 444.256 83.8293 446.073 84.796C447.89 85.724 449.321 86.942 450.365 88.45V83.868H458.543V116.232C458.543 119.209 457.944 121.858 456.745 124.178C455.546 126.537 453.748 128.393 451.351 129.746C448.954 131.138 446.054 131.834 442.651 131.834C438.088 131.834 434.338 130.771 431.399 128.644C428.499 126.517 426.856 123.617 426.469 119.944H434.531C434.956 121.413 435.865 122.573 437.257 123.424C438.688 124.313 440.408 124.758 442.419 124.758C444.778 124.758 446.692 124.043 448.161 122.612C449.63 121.22 450.365 119.093 450.365 116.232V111.244C449.321 112.752 447.871 114.009 446.015 115.014C444.198 116.019 442.11 116.522 439.751 116.522C437.044 116.522 434.57 115.826 432.327 114.434C430.084 113.042 428.306 111.089 426.991 108.576C425.715 106.024 425.077 103.105 425.077 99.818C425.077 96.57 425.715 93.6893 426.991 91.176C428.306 88.6627 430.065 86.7293 432.269 85.376C434.512 84.0227 437.006 83.346 439.751 83.346ZM450.365 99.934C450.365 97.962 449.978 96.28 449.205 94.888C448.432 93.4573 447.388 92.3747 446.073 91.64C444.758 90.8667 443.347 90.48 441.839 90.48C440.331 90.48 438.939 90.8473 437.663 91.582C436.387 92.3167 435.343 93.3993 434.531 94.83C433.758 96.222 433.371 97.8847 433.371 99.818C433.371 101.751 433.758 103.453 434.531 104.922C435.343 106.353 436.387 107.455 437.663 108.228C438.978 109.001 440.37 109.388 441.839 109.388C443.347 109.388 444.758 109.021 446.073 108.286C447.388 107.513 448.432 106.43 449.205 105.038C449.978 103.607 450.365 101.906 450.365 99.934ZM479.06 83.346C481.457 83.346 483.564 83.8293 485.382 84.796C487.199 85.724 488.63 86.942 489.674 88.45V83.868H497.852V116.232C497.852 119.209 497.252 121.858 496.054 124.178C494.855 126.537 493.057 128.393 490.66 129.746C488.262 131.138 485.362 131.834 481.96 131.834C477.397 131.834 473.646 130.771 470.708 128.644C467.808 126.517 466.164 123.617 465.778 119.944H473.84C474.265 121.413 475.174 122.573 476.566 123.424C477.996 124.313 479.717 124.758 481.728 124.758C484.086 124.758 486 124.043 487.47 122.612C488.939 121.22 489.674 119.093 489.674 116.232V111.244C488.63 112.752 487.18 114.009 485.324 115.014C483.506 116.019 481.418 116.522 479.06 116.522C476.353 116.522 473.878 115.826 471.636 114.434C469.393 113.042 467.614 111.089 466.3 108.576C465.024 106.024 464.386 103.105 464.386 99.818C464.386 96.57 465.024 93.6893 466.3 91.176C467.614 88.6627 469.374 86.7293 471.578 85.376C473.82 84.0227 476.314 83.346 479.06 83.346ZM489.674 99.934C489.674 97.962 489.287 96.28 488.514 94.888C487.74 93.4573 486.696 92.3747 485.382 91.64C484.067 90.8667 482.656 90.48 481.148 90.48C479.64 90.48 478.248 90.8473 476.972 91.582C475.696 92.3167 474.652 93.3993 473.84 94.83C473.066 96.222 472.68 97.8847 472.68 99.818C472.68 101.751 473.066 103.453 473.84 104.922C474.652 106.353 475.696 107.455 476.972 108.228C478.286 109.001 479.678 109.388 481.148 109.388C482.656 109.388 484.067 109.021 485.382 108.286C486.696 107.513 487.74 106.43 488.514 105.038C489.287 103.607 489.674 101.906 489.674 99.934ZM20.5821 147.346C22.9795 147.346 25.0868 147.829 26.9041 148.796C28.7215 149.724 30.1521 150.942 31.1961 152.45V147.868H39.3741V180.232C39.3741 183.209 38.7748 185.858 37.5761 188.178C36.3775 190.537 34.5795 192.393 32.1821 193.746C29.7848 195.138 26.8848 195.834 23.4821 195.834C18.9195 195.834 15.1688 194.771 12.2301 192.644C9.33014 190.517 7.68681 187.617 7.30014 183.944H15.3621C15.7875 185.413 16.6961 186.573 18.0881 187.424C19.5188 188.313 21.2395 188.758 23.2501 188.758C25.6088 188.758 27.5228 188.043 28.9921 186.612C30.4615 185.22 31.1961 183.093 31.1961 180.232V175.244C30.1521 176.752 28.7021 178.009 26.8461 179.014C25.0288 180.019 22.9408 180.522 20.5821 180.522C17.8755 180.522 15.4008 179.826 13.1581 178.434C10.9155 177.042 9.13681 175.089 7.82214 172.576C6.54614 170.024 5.90814 167.105 5.90814 163.818C5.90814 160.57 6.54614 157.689 7.82214 155.176C9.13681 152.663 10.8961 150.729 13.1001 149.376C15.3428 148.023 17.8368 147.346 20.5821 147.346ZM31.1961 163.934C31.1961 161.962 30.8095 160.28 30.0361 158.888C29.2628 157.457 28.2188 156.375 26.9041 155.64C25.5895 154.867 24.1781 154.48 22.6701 154.48C21.1621 154.48 19.7701 154.847 18.4941 155.582C17.2181 156.317 16.1741 157.399 15.3621 158.83C14.5888 160.222 14.2021 161.885 14.2021 163.818C14.2021 165.751 14.5888 167.453 15.3621 168.922C16.1741 170.353 17.2181 171.455 18.4941 172.228C19.8088 173.001 21.2008 173.388 22.6701 173.388C24.1781 173.388 25.5895 173.021 26.9041 172.286C28.2188 171.513 29.2628 170.43 30.0361 169.038C30.8095 167.607 31.1961 165.906 31.1961 163.934ZM59.8907 147.346C62.2881 147.346 64.3954 147.829 66.2127 148.796C68.0301 149.724 69.4607 150.942 70.5047 152.45V147.868H78.6827V180.232C78.6827 183.209 78.0834 185.858 76.8847 188.178C75.6861 190.537 73.8881 192.393 71.4907 193.746C69.0934 195.138 66.1934 195.834 62.7907 195.834C58.2281 195.834 54.4774 194.771 51.5387 192.644C48.6387 190.517 46.9954 187.617 46.6087 183.944H54.6707C55.0961 185.413 56.0047 186.573 57.3967 187.424C58.8274 188.313 60.5481 188.758 62.5587 188.758C64.9174 188.758 66.8314 188.043 68.3007 186.612C69.7701 185.22 70.5047 183.093 70.5047 180.232V175.244C69.4607 176.752 68.0107 178.009 66.1547 179.014C64.3374 180.019 62.2494 180.522 59.8907 180.522C57.1841 180.522 54.7094 179.826 52.4667 178.434C50.2241 177.042 48.4454 175.089 47.1307 172.576C45.8547 170.024 45.2167 167.105 45.2167 163.818C45.2167 160.57 45.8547 157.689 47.1307 155.176C48.4454 152.663 50.2047 150.729 52.4087 149.376C54.6514 148.023 57.1454 147.346 59.8907 147.346ZM70.5047 163.934C70.5047 161.962 70.1181 160.28 69.3447 158.888C68.5714 157.457 67.5274 156.375 66.2127 155.64C64.8981 154.867 63.4867 154.48 61.9787 154.48C60.4707 154.48 59.0787 154.847 57.8027 155.582C56.5267 156.317 55.4827 157.399 54.6707 158.83C53.8974 160.222 53.5107 161.885 53.5107 163.818C53.5107 165.751 53.8974 167.453 54.6707 168.922C55.4827 170.353 56.5267 171.455 57.8027 172.228C59.1174 173.001 60.5094 173.388 61.9787 173.388C63.4867 173.388 64.8981 173.021 66.2127 172.286C67.5274 171.513 68.5714 170.43 69.3447 169.038C70.1181 167.607 70.5047 165.906 70.5047 163.934ZM99.1993 147.346C101.597 147.346 103.704 147.829 105.521 148.796C107.339 149.724 108.769 150.942 109.813 152.45V147.868H117.991V180.232C117.991 183.209 117.392 185.858 116.193 188.178C114.995 190.537 113.197 192.393 110.799 193.746C108.402 195.138 105.502 195.834 102.099 195.834C97.5367 195.834 93.786 194.771 90.8473 192.644C87.9473 190.517 86.304 187.617 85.9173 183.944H93.9793C94.4047 185.413 95.3133 186.573 96.7053 187.424C98.136 188.313 99.8567 188.758 101.867 188.758C104.226 188.758 106.14 188.043 107.609 186.612C109.079 185.22 109.813 183.093 109.813 180.232V175.244C108.769 176.752 107.319 178.009 105.463 179.014C103.646 180.019 101.558 180.522 99.1993 180.522C96.4927 180.522 94.018 179.826 91.7753 178.434C89.5327 177.042 87.754 175.089 86.4393 172.576C85.1633 170.024 84.5253 167.105 84.5253 163.818C84.5253 160.57 85.1633 157.689 86.4393 155.176C87.754 152.663 89.5133 150.729 91.7173 149.376C93.96 148.023 96.454 147.346 99.1993 147.346ZM109.813 163.934C109.813 161.962 109.427 160.28 108.653 158.888C107.88 157.457 106.836 156.375 105.521 155.64C104.207 154.867 102.795 154.48 101.287 154.48C99.7793 154.48 98.3873 154.847 97.1113 155.582C95.8353 156.317 94.7913 157.399 93.9793 158.83C93.206 160.222 92.8193 161.885 92.8193 163.818C92.8193 165.751 93.206 167.453 93.9793 168.922C94.7913 170.353 95.8353 171.455 97.1113 172.228C98.426 173.001 99.818 173.388 101.287 173.388C102.795 173.388 104.207 173.021 105.521 172.286C106.836 171.513 107.88 170.43 108.653 169.038C109.427 167.607 109.813 165.906 109.813 163.934ZM138.508 147.346C140.905 147.346 143.013 147.829 144.83 148.796C146.647 149.724 148.078 150.942 149.122 152.45V147.868H157.3V180.232C157.3 183.209 156.701 185.858 155.502 188.178C154.303 190.537 152.505 192.393 150.108 193.746C147.711 195.138 144.811 195.834 141.408 195.834C136.845 195.834 133.095 194.771 130.156 192.644C127.256 190.517 125.613 187.617 125.226 183.944H133.288C133.713 185.413 134.622 186.573 136.014 187.424C137.445 188.313 139.165 188.758 141.176 188.758C143.535 188.758 145.449 188.043 146.918 186.612C148.387 185.22 149.122 183.093 149.122 180.232V175.244C148.078 176.752 146.628 178.009 144.772 179.014C142.955 180.019 140.867 180.522 138.508 180.522C135.801 180.522 133.327 179.826 131.084 178.434C128.841 177.042 127.063 175.089 125.748 172.576C124.472 170.024 123.834 167.105 123.834 163.818C123.834 160.57 124.472 157.689 125.748 155.176C127.063 152.663 128.822 150.729 131.026 149.376C133.269 148.023 135.763 147.346 138.508 147.346ZM149.122 163.934C149.122 161.962 148.735 160.28 147.962 158.888C147.189 157.457 146.145 156.375 144.83 155.64C143.515 154.867 142.104 154.48 140.596 154.48C139.088 154.48 137.696 154.847 136.42 155.582C135.144 156.317 134.1 157.399 133.288 158.83C132.515 160.222 132.128 161.885 132.128 163.818C132.128 165.751 132.515 167.453 133.288 168.922C134.1 170.353 135.144 171.455 136.42 172.228C137.735 173.001 139.127 173.388 140.596 173.388C142.104 173.388 143.515 173.021 144.83 172.286C146.145 171.513 147.189 170.43 147.962 169.038C148.735 167.607 149.122 165.906 149.122 163.934ZM177.817 147.346C180.214 147.346 182.321 147.829 184.139 148.796C185.956 149.724 187.387 150.942 188.431 152.45V147.868H196.609V180.232C196.609 183.209 196.009 185.858 194.811 188.178C193.612 190.537 191.814 192.393 189.417 193.746C187.019 195.138 184.119 195.834 180.717 195.834C176.154 195.834 172.403 194.771 169.465 192.644C166.565 190.517 164.921 187.617 164.535 183.944H172.597C173.022 185.413 173.931 186.573 175.323 187.424C176.753 188.313 178.474 188.758 180.485 188.758C182.843 188.758 184.757 188.043 186.227 186.612C187.696 185.22 188.431 183.093 188.431 180.232V175.244C187.387 176.752 185.937 178.009 184.081 179.014C182.263 180.019 180.175 180.522 177.817 180.522C175.11 180.522 172.635 179.826 170.393 178.434C168.15 177.042 166.371 175.089 165.057 172.576C163.781 170.024 163.143 167.105 163.143 163.818C163.143 160.57 163.781 157.689 165.057 155.176C166.371 152.663 168.131 150.729 170.335 149.376C172.577 148.023 175.071 147.346 177.817 147.346ZM188.431 163.934C188.431 161.962 188.044 160.28 187.271 158.888C186.497 157.457 185.453 156.375 184.139 155.64C182.824 154.867 181.413 154.48 179.905 154.48C178.397 154.48 177.005 154.847 175.729 155.582C174.453 156.317 173.409 157.399 172.597 158.83C171.823 160.222 171.437 161.885 171.437 163.818C171.437 165.751 171.823 167.453 172.597 168.922C173.409 170.353 174.453 171.455 175.729 172.228C177.043 173.001 178.435 173.388 179.905 173.388C181.413 173.388 182.824 173.021 184.139 172.286C185.453 171.513 186.497 170.43 187.271 169.038C188.044 167.607 188.431 165.906 188.431 163.934ZM217.125 147.346C219.522 147.346 221.63 147.829 223.447 148.796C225.264 149.724 226.695 150.942 227.739 152.45V147.868H235.917V180.232C235.917 183.209 235.318 185.858 234.119 188.178C232.92 190.537 231.122 192.393 228.725 193.746C226.328 195.138 223.428 195.834 220.025 195.834C215.462 195.834 211.712 194.771 208.773 192.644C205.873 190.517 204.23 187.617 203.843 183.944H211.905C212.33 185.413 213.239 186.573 214.631 187.424C216.062 188.313 217.782 188.758 219.793 188.758C222.152 188.758 224.066 188.043 225.535 186.612C227.004 185.22 227.739 183.093 227.739 180.232V175.244C226.695 176.752 225.245 178.009 223.389 179.014C221.572 180.019 219.484 180.522 217.125 180.522C214.418 180.522 211.944 179.826 209.701 178.434C207.458 177.042 205.68 175.089 204.365 172.576C203.089 170.024 202.451 167.105 202.451 163.818C202.451 160.57 203.089 157.689 204.365 155.176C205.68 152.663 207.439 150.729 209.643 149.376C211.886 148.023 214.38 147.346 217.125 147.346ZM227.739 163.934C227.739 161.962 227.352 160.28 226.579 158.888C225.806 157.457 224.762 156.375 223.447 155.64C222.132 154.867 220.721 154.48 219.213 154.48C217.705 154.48 216.313 154.847 215.037 155.582C213.761 156.317 212.717 157.399 211.905 158.83C211.132 160.222 210.745 161.885 210.745 163.818C210.745 165.751 211.132 167.453 211.905 168.922C212.717 170.353 213.761 171.455 215.037 172.228C216.352 173.001 217.744 173.388 219.213 173.388C220.721 173.388 222.132 173.021 223.447 172.286C224.762 171.513 225.806 170.43 226.579 169.038C227.352 167.607 227.739 165.906 227.739 163.934ZM256.434 147.346C258.831 147.346 260.938 147.829 262.756 148.796C264.573 149.724 266.004 150.942 267.048 152.45V147.868H275.226V180.232C275.226 183.209 274.626 185.858 273.428 188.178C272.229 190.537 270.431 192.393 268.034 193.746C265.636 195.138 262.736 195.834 259.334 195.834C254.771 195.834 251.02 194.771 248.082 192.644C245.182 190.517 243.538 187.617 243.152 183.944H251.214C251.639 185.413 252.548 186.573 253.94 187.424C255.37 188.313 257.091 188.758 259.102 188.758C261.46 188.758 263.374 188.043 264.844 186.612C266.313 185.22 267.048 183.093 267.048 180.232V175.244C266.004 176.752 264.554 178.009 262.698 179.014C260.88 180.019 258.792 180.522 256.434 180.522C253.727 180.522 251.252 179.826 249.01 178.434C246.767 177.042 244.988 175.089 243.674 172.576C242.398 170.024 241.76 167.105 241.76 163.818C241.76 160.57 242.398 157.689 243.674 155.176C244.988 152.663 246.748 150.729 248.952 149.376C251.194 148.023 253.688 147.346 256.434 147.346ZM267.048 163.934C267.048 161.962 266.661 160.28 265.888 158.888C265.114 157.457 264.07 156.375 262.756 155.64C261.441 154.867 260.03 154.48 258.522 154.48C257.014 154.48 255.622 154.847 254.346 155.582C253.07 156.317 252.026 157.399 251.214 158.83C250.44 160.222 250.054 161.885 250.054 163.818C250.054 165.751 250.44 167.453 251.214 168.922C252.026 170.353 253.07 171.455 254.346 172.228C255.66 173.001 257.052 173.388 258.522 173.388C260.03 173.388 261.441 173.021 262.756 172.286C264.07 171.513 265.114 170.43 265.888 169.038C266.661 167.607 267.048 165.906 267.048 163.934ZM295.742 147.346C298.14 147.346 300.247 147.829 302.064 148.796C303.882 149.724 305.312 150.942 306.356 152.45V147.868H314.534V180.232C314.534 183.209 313.935 185.858 312.736 188.178C311.538 190.537 309.74 192.393 307.342 193.746C304.945 195.138 302.045 195.834 298.642 195.834C294.08 195.834 290.329 194.771 287.39 192.644C284.49 190.517 282.847 187.617 282.46 183.944H290.522C290.948 185.413 291.856 186.573 293.248 187.424C294.679 188.313 296.4 188.758 298.41 188.758C300.769 188.758 302.683 188.043 304.152 186.612C305.622 185.22 306.356 183.093 306.356 180.232V175.244C305.312 176.752 303.862 178.009 302.006 179.014C300.189 180.019 298.101 180.522 295.742 180.522C293.036 180.522 290.561 179.826 288.318 178.434C286.076 177.042 284.297 175.089 282.982 172.576C281.706 170.024 281.068 167.105 281.068 163.818C281.068 160.57 281.706 157.689 282.982 155.176C284.297 152.663 286.056 150.729 288.26 149.376C290.503 148.023 292.997 147.346 295.742 147.346ZM306.356 163.934C306.356 161.962 305.97 160.28 305.196 158.888C304.423 157.457 303.379 156.375 302.064 155.64C300.75 154.867 299.338 154.48 297.83 154.48C296.322 154.48 294.93 154.847 293.654 155.582C292.378 156.317 291.334 157.399 290.522 158.83C289.749 160.222 289.362 161.885 289.362 163.818C289.362 165.751 289.749 167.453 290.522 168.922C291.334 170.353 292.378 171.455 293.654 172.228C294.969 173.001 296.361 173.388 297.83 173.388C299.338 173.388 300.75 173.021 302.064 172.286C303.379 171.513 304.423 170.43 305.196 169.038C305.97 167.607 306.356 165.906 306.356 163.934ZM335.051 147.346C337.448 147.346 339.556 147.829 341.373 148.796C343.19 149.724 344.621 150.942 345.665 152.45V147.868H353.843V180.232C353.843 183.209 353.244 185.858 352.045 188.178C350.846 190.537 349.048 192.393 346.651 193.746C344.254 195.138 341.354 195.834 337.951 195.834C333.388 195.834 329.638 194.771 326.699 192.644C323.799 190.517 322.156 187.617 321.769 183.944H329.831C330.256 185.413 331.165 186.573 332.557 187.424C333.988 188.313 335.708 188.758 337.719 188.758C340.078 188.758 341.992 188.043 343.461 186.612C344.93 185.22 345.665 183.093 345.665 180.232V175.244C344.621 176.752 343.171 178.009 341.315 179.014C339.498 180.019 337.41 180.522 335.051 180.522C332.344 180.522 329.87 179.826 327.627 178.434C325.384 177.042 323.606 175.089 322.291 172.576C321.015 170.024 320.377 167.105 320.377 163.818C320.377 160.57 321.015 157.689 322.291 155.176C323.606 152.663 325.365 150.729 327.569 149.376C329.812 148.023 332.306 147.346 335.051 147.346ZM345.665 163.934C345.665 161.962 345.278 160.28 344.505 158.888C343.732 157.457 342.688 156.375 341.373 155.64C340.058 154.867 338.647 154.48 337.139 154.48C335.631 154.48 334.239 154.847 332.963 155.582C331.687 156.317 330.643 157.399 329.831 158.83C329.058 160.222 328.671 161.885 328.671 163.818C328.671 165.751 329.058 167.453 329.831 168.922C330.643 170.353 331.687 171.455 332.963 172.228C334.278 173.001 335.67 173.388 337.139 173.388C338.647 173.388 340.058 173.021 341.373 172.286C342.688 171.513 343.732 170.43 344.505 169.038C345.278 167.607 345.665 165.906 345.665 163.934ZM374.359 147.346C376.757 147.346 378.864 147.829 380.681 148.796C382.499 149.724 383.929 150.942 384.973 152.45V147.868H393.151V180.232C393.151 183.209 392.552 185.858 391.353 188.178C390.155 190.537 388.357 192.393 385.959 193.746C383.562 195.138 380.662 195.834 377.259 195.834C372.697 195.834 368.946 194.771 366.007 192.644C363.107 190.517 361.464 187.617 361.077 183.944H369.139C369.565 185.413 370.473 186.573 371.865 187.424C373.296 188.313 375.017 188.758 377.027 188.758C379.386 188.758 381.3 188.043 382.769 186.612C384.239 185.22 384.973 183.093 384.973 180.232V175.244C383.929 176.752 382.479 178.009 380.623 179.014C378.806 180.019 376.718 180.522 374.359 180.522C371.653 180.522 369.178 179.826 366.935 178.434C364.693 177.042 362.914 175.089 361.599 172.576C360.323 170.024 359.685 167.105 359.685 163.818C359.685 160.57 360.323 157.689 361.599 155.176C362.914 152.663 364.673 150.729 366.877 149.376C369.12 148.023 371.614 147.346 374.359 147.346ZM384.973 163.934C384.973 161.962 384.587 160.28 383.813 158.888C383.04 157.457 381.996 156.375 380.681 155.64C379.367 154.867 377.955 154.48 376.447 154.48C374.939 154.48 373.547 154.847 372.271 155.582C370.995 156.317 369.951 157.399 369.139 158.83C368.366 160.222 367.979 161.885 367.979 163.818C367.979 165.751 368.366 167.453 369.139 168.922C369.951 170.353 370.995 171.455 372.271 172.228C373.586 173.001 374.978 173.388 376.447 173.388C377.955 173.388 379.367 173.021 380.681 172.286C381.996 171.513 383.04 170.43 383.813 169.038C384.587 167.607 384.973 165.906 384.973 163.934ZM413.668 147.346C416.065 147.346 418.173 147.829 419.99 148.796C421.807 149.724 423.238 150.942 424.282 152.45V147.868H432.46V180.232C432.46 183.209 431.861 185.858 430.662 188.178C429.463 190.537 427.665 192.393 425.268 193.746C422.871 195.138 419.971 195.834 416.568 195.834C412.005 195.834 408.255 194.771 405.316 192.644C402.416 190.517 400.773 187.617 400.386 183.944H408.448C408.873 185.413 409.782 186.573 411.174 187.424C412.605 188.313 414.325 188.758 416.336 188.758C418.695 188.758 420.609 188.043 422.078 186.612C423.547 185.22 424.282 183.093 424.282 180.232V175.244C423.238 176.752 421.788 178.009 419.932 179.014C418.115 180.019 416.027 180.522 413.668 180.522C410.961 180.522 408.487 179.826 406.244 178.434C404.001 177.042 402.223 175.089 400.908 172.576C399.632 170.024 398.994 167.105 398.994 163.818C398.994 160.57 399.632 157.689 400.908 155.176C402.223 152.663 403.982 150.729 406.186 149.376C408.429 148.023 410.923 147.346 413.668 147.346ZM424.282 163.934C424.282 161.962 423.895 160.28 423.122 158.888C422.349 157.457 421.305 156.375 419.99 155.64C418.675 154.867 417.264 154.48 415.756 154.48C414.248 154.48 412.856 154.847 411.58 155.582C410.304 156.317 409.26 157.399 408.448 158.83C407.675 160.222 407.288 161.885 407.288 163.818C407.288 165.751 407.675 167.453 408.448 168.922C409.26 170.353 410.304 171.455 411.58 172.228C412.895 173.001 414.287 173.388 415.756 173.388C417.264 173.388 418.675 173.021 419.99 172.286C421.305 171.513 422.349 170.43 423.122 169.038C423.895 167.607 424.282 165.906 424.282 163.934ZM452.977 147.346C455.374 147.346 457.481 147.829 459.299 148.796C461.116 149.724 462.547 150.942 463.591 152.45V147.868H471.769V180.232C471.769 183.209 471.169 185.858 469.971 188.178C468.772 190.537 466.974 192.393 464.577 193.746C462.179 195.138 459.279 195.834 455.877 195.834C451.314 195.834 447.563 194.771 444.625 192.644C441.725 190.517 440.081 187.617 439.695 183.944H447.757C448.182 185.413 449.091 186.573 450.483 187.424C451.913 188.313 453.634 188.758 455.645 188.758C458.003 188.758 459.917 188.043 461.387 186.612C462.856 185.22 463.591 183.093 463.591 180.232V175.244C462.547 176.752 461.097 178.009 459.241 179.014C457.423 180.019 455.335 180.522 452.977 180.522C450.27 180.522 447.795 179.826 445.553 178.434C443.31 177.042 441.531 175.089 440.217 172.576C438.941 170.024 438.303 167.105 438.303 163.818C438.303 160.57 438.941 157.689 440.217 155.176C441.531 152.663 443.291 150.729 445.495 149.376C447.737 148.023 450.231 147.346 452.977 147.346ZM463.591 163.934C463.591 161.962 463.204 160.28 462.431 158.888C461.657 157.457 460.613 156.375 459.299 155.64C457.984 154.867 456.573 154.48 455.065 154.48C453.557 154.48 452.165 154.847 450.889 155.582C449.613 156.317 448.569 157.399 447.757 158.83C446.983 160.222 446.597 161.885 446.597 163.818C446.597 165.751 446.983 167.453 447.757 168.922C448.569 170.353 449.613 171.455 450.889 172.228C452.203 173.001 453.595 173.388 455.065 173.388C456.573 173.388 457.984 173.021 459.299 172.286C460.613 171.513 461.657 170.43 462.431 169.038C463.204 167.607 463.591 165.906 463.591 163.934ZM492.285 147.346C494.683 147.346 496.79 147.829 498.607 148.796C500.425 149.724 501.855 150.942 502.899 152.45V147.868H511.077V180.232C511.077 183.209 510.478 185.858 509.279 188.178C508.081 190.537 506.283 192.393 503.885 193.746C501.488 195.138 498.588 195.834 495.185 195.834C490.623 195.834 486.872 194.771 483.933 192.644C481.033 190.517 479.39 187.617 479.003 183.944H487.065C487.491 185.413 488.399 186.573 489.791 187.424C491.222 188.313 492.943 188.758 494.953 188.758C497.312 188.758 499.226 188.043 500.695 186.612C502.165 185.22 502.899 183.093 502.899 180.232V175.244C501.855 176.752 500.405 178.009 498.549 179.014C496.732 180.019 494.644 180.522 492.285 180.522C489.579 180.522 487.104 179.826 484.861 178.434C482.619 177.042 480.84 175.089 479.525 172.576C478.249 170.024 477.611 167.105 477.611 163.818C477.611 160.57 478.249 157.689 479.525 155.176C480.84 152.663 482.599 150.729 484.803 149.376C487.046 148.023 489.54 147.346 492.285 147.346ZM502.899 163.934C502.899 161.962 502.513 160.28 501.739 158.888C500.966 157.457 499.922 156.375 498.607 155.64C497.293 154.867 495.881 154.48 494.373 154.48C492.865 154.48 491.473 154.847 490.197 155.582C488.921 156.317 487.877 157.399 487.065 158.83C486.292 160.222 485.905 161.885 485.905 163.818C485.905 165.751 486.292 167.453 487.065 168.922C487.877 170.353 488.921 171.455 490.197 172.228C491.512 173.001 492.904 173.388 494.373 173.388C495.881 173.388 497.293 173.021 498.607 172.286C499.922 171.513 500.966 170.43 501.739 169.038C502.513 167.607 502.899 165.906 502.899 163.934ZM55.8976 218.346C58.2949 218.346 60.4022 218.829 62.2196 219.796C64.0369 220.724 65.4676 221.942 66.5116 223.45V218.868H74.6896V251.232C74.6896 254.209 74.0902 256.858 72.8916 259.178C71.6929 261.537 69.8949 263.393 67.4976 264.746C65.1002 266.138 62.2002 266.834 58.7976 266.834C54.2349 266.834 50.4842 265.771 47.5456 263.644C44.6456 261.517 43.0022 258.617 42.6156 254.944H50.6776C51.1029 256.413 52.0116 257.573 53.4036 258.424C54.8342 259.313 56.5549 259.758 58.5656 259.758C60.9242 259.758 62.8382 259.043 64.3076 257.612C65.7769 256.22 66.5116 254.093 66.5116 251.232V246.244C65.4676 247.752 64.0176 249.009 62.1616 250.014C60.3442 251.019 58.2562 251.522 55.8976 251.522C53.1909 251.522 50.7162 250.826 48.4736 249.434C46.2309 248.042 44.4522 246.089 43.1376 243.576C41.8616 241.024 41.2236 238.105 41.2236 234.818C41.2236 231.57 41.8616 228.689 43.1376 226.176C44.4522 223.663 46.2116 221.729 48.4156 220.376C50.6582 219.023 53.1522 218.346 55.8976 218.346ZM66.5116 234.934C66.5116 232.962 66.1249 231.28 65.3516 229.888C64.5782 228.457 63.5342 227.375 62.2196 226.64C60.9049 225.867 59.4936 225.48 57.9856 225.48C56.4776 225.48 55.0856 225.847 53.8096 226.582C52.5336 227.317 51.4896 228.399 50.6776 229.83C49.9042 231.222 49.5176 232.885 49.5176 234.818C49.5176 236.751 49.9042 238.453 50.6776 239.922C51.4896 241.353 52.5336 242.455 53.8096 243.228C55.1242 244.001 56.5162 244.388 57.9856 244.388C59.4936 244.388 60.9049 244.021 62.2196 243.286C63.5342 242.513 64.5782 241.43 65.3516 240.038C66.1249 238.607 66.5116 236.906 66.5116 234.934ZM95.2062 218.346C97.6035 218.346 99.7108 218.829 101.528 219.796C103.345 220.724 104.776 221.942 105.82 223.45V218.868H113.998V251.232C113.998 254.209 113.399 256.858 112.2 259.178C111.001 261.537 109.203 263.393 106.806 264.746C104.409 266.138 101.509 266.834 98.1062 266.834C93.5435 266.834 89.7928 265.771 86.8542 263.644C83.9542 261.517 82.3108 258.617 81.9242 254.944H89.9862C90.4115 256.413 91.3202 257.573 92.7122 258.424C94.1428 259.313 95.8635 259.758 97.8742 259.758C100.233 259.758 102.147 259.043 103.616 257.612C105.085 256.22 105.82 254.093 105.82 251.232V246.244C104.776 247.752 103.326 249.009 101.47 250.014C99.6528 251.019 97.5648 251.522 95.2062 251.522C92.4995 251.522 90.0248 250.826 87.7822 249.434C85.5395 248.042 83.7608 246.089 82.4462 243.576C81.1702 241.024 80.5322 238.105 80.5322 234.818C80.5322 231.57 81.1702 228.689 82.4462 226.176C83.7608 223.663 85.5202 221.729 87.7242 220.376C89.9668 219.023 92.4608 218.346 95.2062 218.346ZM105.82 234.934C105.82 232.962 105.433 231.28 104.66 229.888C103.887 228.457 102.843 227.375 101.528 226.64C100.213 225.867 98.8022 225.48 97.2942 225.48C95.7862 225.48 94.3942 225.847 93.1182 226.582C91.8422 227.317 90.7982 228.399 89.9862 229.83C89.2128 231.222 88.8262 232.885 88.8262 234.818C88.8262 236.751 89.2128 238.453 89.9862 239.922C90.7982 241.353 91.8422 242.455 93.1182 243.228C94.4328 244.001 95.8248 244.388 97.2942 244.388C98.8022 244.388 100.213 244.021 101.528 243.286C102.843 242.513 103.887 241.43 104.66 240.038C105.433 238.607 105.82 236.906 105.82 234.934ZM134.515 218.346C136.912 218.346 139.019 218.829 140.837 219.796C142.654 220.724 144.085 221.942 145.129 223.45V218.868H153.307V251.232C153.307 254.209 152.707 256.858 151.509 259.178C150.31 261.537 148.512 263.393 146.115 264.746C143.717 266.138 140.817 266.834 137.415 266.834C132.852 266.834 129.101 265.771 126.163 263.644C123.263 261.517 121.619 258.617 121.233 254.944H129.295C129.72 256.413 130.629 257.573 132.021 258.424C133.451 259.313 135.172 259.758 137.183 259.758C139.541 259.758 141.455 259.043 142.925 257.612C144.394 256.22 145.129 254.093 145.129 251.232V246.244C144.085 247.752 142.635 249.009 140.779 250.014C138.961 251.019 136.873 251.522 134.515 251.522C131.808 251.522 129.333 250.826 127.091 249.434C124.848 248.042 123.069 246.089 121.755 243.576C120.479 241.024 119.841 238.105 119.841 234.818C119.841 231.57 120.479 228.689 121.755 226.176C123.069 223.663 124.829 221.729 127.033 220.376C129.275 219.023 131.769 218.346 134.515 218.346ZM145.129 234.934C145.129 232.962 144.742 231.28 143.969 229.888C143.195 228.457 142.151 227.375 140.837 226.64C139.522 225.867 138.111 225.48 136.603 225.48C135.095 225.48 133.703 225.847 132.427 226.582C131.151 227.317 130.107 228.399 129.295 229.83C128.521 231.222 128.135 232.885 128.135 234.818C128.135 236.751 128.521 238.453 129.295 239.922C130.107 241.353 131.151 242.455 132.427 243.228C133.741 244.001 135.133 244.388 136.603 244.388C138.111 244.388 139.522 244.021 140.837 243.286C142.151 242.513 143.195 241.43 143.969 240.038C144.742 238.607 145.129 236.906 145.129 234.934ZM173.823 218.346C176.221 218.346 178.328 218.829 180.145 219.796C181.963 220.724 183.393 221.942 184.437 223.45V218.868H192.615V251.232C192.615 254.209 192.016 256.858 190.817 259.178C189.619 261.537 187.821 263.393 185.423 264.746C183.026 266.138 180.126 266.834 176.723 266.834C172.161 266.834 168.41 265.771 165.471 263.644C162.571 261.517 160.928 258.617 160.541 254.944H168.603C169.029 256.413 169.937 257.573 171.329 258.424C172.76 259.313 174.481 259.758 176.491 259.758C178.85 259.758 180.764 259.043 182.233 257.612C183.703 256.22 184.437 254.093 184.437 251.232V246.244C183.393 247.752 181.943 249.009 180.087 250.014C178.27 251.019 176.182 251.522 173.823 251.522C171.117 251.522 168.642 250.826 166.399 249.434C164.157 248.042 162.378 246.089 161.063 243.576C159.787 241.024 159.149 238.105 159.149 234.818C159.149 231.57 159.787 228.689 161.063 226.176C162.378 223.663 164.137 221.729 166.341 220.376C168.584 219.023 171.078 218.346 173.823 218.346ZM184.437 234.934C184.437 232.962 184.051 231.28 183.277 229.888C182.504 228.457 181.46 227.375 180.145 226.64C178.831 225.867 177.419 225.48 175.911 225.48C174.403 225.48 173.011 225.847 171.735 226.582C170.459 227.317 169.415 228.399 168.603 229.83C167.83 231.222 167.443 232.885 167.443 234.818C167.443 236.751 167.83 238.453 168.603 239.922C169.415 241.353 170.459 242.455 171.735 243.228C173.05 244.001 174.442 244.388 175.911 244.388C177.419 244.388 178.831 244.021 180.145 243.286C181.46 242.513 182.504 241.43 183.277 240.038C184.051 238.607 184.437 236.906 184.437 234.934ZM213.132 218.346C215.529 218.346 217.637 218.829 219.454 219.796C221.271 220.724 222.702 221.942 223.746 223.45V218.868H231.924V251.232C231.924 254.209 231.325 256.858 230.126 259.178C228.927 261.537 227.129 263.393 224.732 264.746C222.335 266.138 219.435 266.834 216.032 266.834C211.469 266.834 207.719 265.771 204.78 263.644C201.88 261.517 200.237 258.617 199.85 254.944H207.912C208.337 256.413 209.246 257.573 210.638 258.424C212.069 259.313 213.789 259.758 215.8 259.758C218.159 259.758 220.073 259.043 221.542 257.612C223.011 256.22 223.746 254.093 223.746 251.232V246.244C222.702 247.752 221.252 249.009 219.396 250.014C217.579 251.019 215.491 251.522 213.132 251.522C210.425 251.522 207.951 250.826 205.708 249.434C203.465 248.042 201.687 246.089 200.372 243.576C199.096 241.024 198.458 238.105 198.458 234.818C198.458 231.57 199.096 228.689 200.372 226.176C201.687 223.663 203.446 221.729 205.65 220.376C207.893 219.023 210.387 218.346 213.132 218.346ZM223.746 234.934C223.746 232.962 223.359 231.28 222.586 229.888C221.813 228.457 220.769 227.375 219.454 226.64C218.139 225.867 216.728 225.48 215.22 225.48C213.712 225.48 212.32 225.847 211.044 226.582C209.768 227.317 208.724 228.399 207.912 229.83C207.139 231.222 206.752 232.885 206.752 234.818C206.752 236.751 207.139 238.453 207.912 239.922C208.724 241.353 209.768 242.455 211.044 243.228C212.359 244.001 213.751 244.388 215.22 244.388C216.728 244.388 218.139 244.021 219.454 243.286C220.769 242.513 221.813 241.43 222.586 240.038C223.359 238.607 223.746 236.906 223.746 234.934ZM252.441 218.346C254.838 218.346 256.945 218.829 258.763 219.796C260.58 220.724 262.011 221.942 263.055 223.45V218.868H271.233V251.232C271.233 254.209 270.633 256.858 269.435 259.178C268.236 261.537 266.438 263.393 264.041 264.746C261.643 266.138 258.743 266.834 255.341 266.834C250.778 266.834 247.027 265.771 244.089 263.644C241.189 261.517 239.545 258.617 239.159 254.944H247.221C247.646 256.413 248.555 257.573 249.947 258.424C251.377 259.313 253.098 259.758 255.109 259.758C257.467 259.758 259.381 259.043 260.851 257.612C262.32 256.22 263.055 254.093 263.055 251.232V246.244C262.011 247.752 260.561 249.009 258.705 250.014C256.887 251.019 254.799 251.522 252.441 251.522C249.734 251.522 247.259 250.826 245.017 249.434C242.774 248.042 240.995 246.089 239.681 243.576C238.405 241.024 237.767 238.105 237.767 234.818C237.767 231.57 238.405 228.689 239.681 226.176C240.995 223.663 242.755 221.729 244.959 220.376C247.201 219.023 249.695 218.346 252.441 218.346ZM263.055 234.934C263.055 232.962 262.668 231.28 261.895 229.888C261.121 228.457 260.077 227.375 258.763 226.64C257.448 225.867 256.037 225.48 254.529 225.48C253.021 225.48 251.629 225.847 250.353 226.582C249.077 227.317 248.033 228.399 247.221 229.83C246.447 231.222 246.061 232.885 246.061 234.818C246.061 236.751 246.447 238.453 247.221 239.922C248.033 241.353 249.077 242.455 250.353 243.228C251.667 244.001 253.059 244.388 254.529 244.388C256.037 244.388 257.448 244.021 258.763 243.286C260.077 242.513 261.121 241.43 261.895 240.038C262.668 238.607 263.055 236.906 263.055 234.934ZM291.749 218.346C294.146 218.346 296.254 218.829 298.071 219.796C299.888 220.724 301.319 221.942 302.363 223.45V218.868H310.541V251.232C310.541 254.209 309.942 256.858 308.743 259.178C307.544 261.537 305.746 263.393 303.349 264.746C300.952 266.138 298.052 266.834 294.649 266.834C290.086 266.834 286.336 265.771 283.397 263.644C280.497 261.517 278.854 258.617 278.467 254.944H286.529C286.954 256.413 287.863 257.573 289.255 258.424C290.686 259.313 292.406 259.758 294.417 259.758C296.776 259.758 298.69 259.043 300.159 257.612C301.628 256.22 302.363 254.093 302.363 251.232V246.244C301.319 247.752 299.869 249.009 298.013 250.014C296.196 251.019 294.108 251.522 291.749 251.522C289.042 251.522 286.568 250.826 284.325 249.434C282.082 248.042 280.304 246.089 278.989 243.576C277.713 241.024 277.075 238.105 277.075 234.818C277.075 231.57 277.713 228.689 278.989 226.176C280.304 223.663 282.063 221.729 284.267 220.376C286.51 219.023 289.004 218.346 291.749 218.346ZM302.363 234.934C302.363 232.962 301.976 231.28 301.203 229.888C300.43 228.457 299.386 227.375 298.071 226.64C296.756 225.867 295.345 225.48 293.837 225.48C292.329 225.48 290.937 225.847 289.661 226.582C288.385 227.317 287.341 228.399 286.529 229.83C285.756 231.222 285.369 232.885 285.369 234.818C285.369 236.751 285.756 238.453 286.529 239.922C287.341 241.353 288.385 242.455 289.661 243.228C290.976 244.001 292.368 244.388 293.837 244.388C295.345 244.388 296.756 244.021 298.071 243.286C299.386 242.513 300.43 241.43 301.203 240.038C301.976 238.607 302.363 236.906 302.363 234.934ZM331.058 218.346C333.455 218.346 335.562 218.829 337.38 219.796C339.197 220.724 340.628 221.942 341.672 223.45V218.868H349.85V251.232C349.85 254.209 349.25 256.858 348.052 259.178C346.853 261.537 345.055 263.393 342.658 264.746C340.26 266.138 337.36 266.834 333.958 266.834C329.395 266.834 325.644 265.771 322.706 263.644C319.806 261.517 318.162 258.617 317.776 254.944H325.838C326.263 256.413 327.172 257.573 328.564 258.424C329.994 259.313 331.715 259.758 333.726 259.758C336.084 259.758 337.998 259.043 339.468 257.612C340.937 256.22 341.672 254.093 341.672 251.232V246.244C340.628 247.752 339.178 249.009 337.322 250.014C335.504 251.019 333.416 251.522 331.058 251.522C328.351 251.522 325.876 250.826 323.634 249.434C321.391 248.042 319.612 246.089 318.298 243.576C317.022 241.024 316.384 238.105 316.384 234.818C316.384 231.57 317.022 228.689 318.298 226.176C319.612 223.663 321.372 221.729 323.576 220.376C325.818 219.023 328.312 218.346 331.058 218.346ZM341.672 234.934C341.672 232.962 341.285 231.28 340.512 229.888C339.738 228.457 338.694 227.375 337.38 226.64C336.065 225.867 334.654 225.48 333.146 225.48C331.638 225.48 330.246 225.847 328.97 226.582C327.694 227.317 326.65 228.399 325.838 229.83C325.064 231.222 324.678 232.885 324.678 234.818C324.678 236.751 325.064 238.453 325.838 239.922C326.65 241.353 327.694 242.455 328.97 243.228C330.284 244.001 331.676 244.388 333.146 244.388C334.654 244.388 336.065 244.021 337.38 243.286C338.694 242.513 339.738 241.43 340.512 240.038C341.285 238.607 341.672 236.906 341.672 234.934Z" fill="#FF42A7"/>
</g>
</svg>
