<svg width="519" height="282" viewBox="0 0 519 282" fill="none" xmlns="http://www.w3.org/2000/svg">
<mask id="mask0_556_108" style="mask-type:alpha" maskUnits="userSpaceOnUse" x="0" y="0" width="519" height="282">
<rect width="519" height="282" fill="white"/>
</mask>
<g mask="url(#mask0_556_108)">
<rect x="15" y="186" width="75" height="75" rx="17" fill="#2A2A37"/>
<rect x="15" y="103" width="75" height="75" rx="17" fill="#FF42A7"/>
<rect x="15" y="20" width="75" height="75" rx="17" fill="#2A2A37"/>
<rect x="98" y="186" width="75" height="75" rx="17" fill="#FF42A7"/>
<rect x="98" y="103" width="75" height="75" rx="17" fill="#2A2A37"/>
<rect x="98" y="20" width="75" height="75" rx="17" fill="#FF42A7"/>
<rect x="181" y="186" width="75" height="75" rx="17" fill="#2A2A37"/>
<rect x="181" y="103" width="75" height="75" rx="17" fill="#2A2A37"/>
<rect x="181" y="20" width="75" height="75" rx="17" fill="#2A2A37"/>
<rect x="264" y="186" width="75" height="75" rx="17" fill="#2A2A37"/>
<rect x="264" y="103" width="75" height="75" rx="17" fill="#FF42A7"/>
<rect x="264" y="20" width="75" height="75" rx="17" fill="#2A2A37"/>
<rect x="347" y="186" width="75" height="75" rx="17" fill="#2A2A37"/>
<rect x="347" y="103" width="75" height="75" rx="17" fill="#2A2A37"/>
<rect x="347" y="20" width="75" height="75" rx="17" fill="#2A2A37"/>
<rect x="430" y="186" width="75" height="75" rx="17" fill="#FF42A7"/>
<rect x="430" y="103" width="75" height="75" rx="17" fill="#2A2A37"/>
<rect x="430" y="20" width="75" height="75" rx="17" fill="#FF42A7"/>
</g>
</svg>
