<svg width="519" height="282" viewBox="0 0 519 282" fill="none" xmlns="http://www.w3.org/2000/svg">
<mask id="mask0_556_190" style="mask-type:alpha" maskUnits="userSpaceOnUse" x="0" y="0" width="519" height="282">
<rect width="519" height="282" fill="#C4C4C4"/>
</mask>
<g mask="url(#mask0_556_190)">
<path d="M82.2436 29.8329C77.9776 20.5553 87.5556 10.9774 96.8332 15.2434L98.4632 15.9929C101.38 17.3341 104.737 17.3341 107.654 15.9929L109.284 15.2434C118.562 10.9774 128.14 20.5553 123.874 29.8329L123.124 31.4629C121.783 34.3797 121.783 37.737 123.124 40.6538L123.874 42.2838C128.14 51.5614 118.562 61.1393 109.284 56.8733L107.654 56.1238C104.737 54.7826 101.38 54.7826 98.4632 56.1238L96.8332 56.8733C87.5556 61.1393 77.9776 51.5614 82.2437 42.2838L82.9931 40.6538C84.3344 37.737 84.3344 34.3797 82.9931 31.4629L82.2436 29.8329Z" fill="#FF42A7"/>
<path d="M109.963 228.283C108.904 219.652 119.507 214.708 125.437 221.067V221.067C128.089 223.911 132.271 224.724 135.796 223.081V223.081C143.676 219.406 151.655 227.963 147.44 235.568V235.568C145.555 238.969 146.074 243.197 148.726 246.041V246.041C154.656 252.401 148.984 262.633 140.448 260.974V260.974C136.631 260.232 132.77 262.033 130.885 265.434V265.434C126.669 273.039 115.184 270.807 114.125 262.176V262.176C113.651 258.316 110.745 255.201 106.928 254.459V254.459C98.3925 252.799 96.9667 241.187 104.847 237.512V237.512C108.372 235.869 110.437 232.143 109.963 228.283V228.283Z" fill="#FF42A7"/>
<path d="M251.463 44.2738C254.15 36.0039 265.85 36.0039 268.537 44.2738V44.2738C269.739 47.9722 273.185 50.4762 277.074 50.4762V50.4762C285.769 50.4762 289.385 61.6032 282.35 66.7143V66.7143C279.204 69 277.887 73.0516 279.089 76.75V76.75C281.776 85.0199 272.311 91.8968 265.276 86.7857V86.7857C262.13 84.5 257.87 84.5 254.724 86.7857V86.7857C247.689 91.8968 238.224 85.0199 240.911 76.75V76.75C242.113 73.0516 240.796 69 237.65 66.7143V66.7143C230.615 61.6032 234.231 50.4762 242.926 50.4762V50.4762C246.815 50.4762 250.261 47.9722 251.463 44.2738V44.2738Z" fill="#FF42A7"/>
<path d="M433.225 16.185C442.503 11.919 452.081 21.497 447.815 30.7746L447.065 32.4046C445.724 35.3214 445.724 38.6786 447.065 41.5955L447.815 43.2254C452.081 52.503 442.503 62.081 433.225 57.815L431.595 57.0655C428.679 55.7243 425.321 55.7243 422.405 57.0655L420.775 57.815C411.497 62.081 401.919 52.503 406.185 43.2254L406.935 41.5955C408.276 38.6786 408.276 35.3214 406.935 32.4045L406.185 30.7746C401.919 21.497 411.497 11.919 420.775 16.1851L422.405 16.9345C425.321 18.2758 428.679 18.2758 431.595 16.9345L433.225 16.185Z" fill="#FF42A7"/>
<path d="M395.235 222.821C401.166 216.462 411.769 221.406 410.709 230.037V230.037C410.236 233.897 412.301 237.623 415.825 239.266V239.266C423.706 242.941 422.28 254.553 413.744 256.213V256.213C409.927 256.955 407.022 260.07 406.548 263.93V263.93C405.488 272.561 394.004 274.793 389.788 267.188V267.188C387.903 263.787 384.042 261.986 380.224 262.728V262.728C371.689 264.387 366.017 254.155 371.947 247.795V247.795C374.599 244.951 375.118 240.723 373.233 237.322V237.322C369.017 229.716 376.996 221.16 384.877 224.835V224.835C388.401 226.478 392.583 225.665 395.235 222.821V222.821Z" fill="#FF42A7"/>
<rect x="19" y="102" width="482" height="99" rx="22" fill="#FF42A7"/>
<path d="M88.506 141.352C88.506 145.337 87.5913 148.996 85.762 152.328C83.9327 155.595 81.1233 158.241 77.334 160.266C73.5447 162.291 68.8407 163.304 63.222 163.304H52.834V188H36.076V119.204H63.222C68.71 119.204 73.3487 120.151 77.138 122.046C80.9273 123.941 83.7693 126.554 85.664 129.886C87.5587 133.218 88.506 137.04 88.506 141.352ZM61.948 149.976C65.1493 149.976 67.534 149.225 69.102 147.722C70.67 146.219 71.454 144.096 71.454 141.352C71.454 138.608 70.67 136.485 69.102 134.982C67.534 133.479 65.1493 132.728 61.948 132.728H52.834V149.976H61.948ZM132.314 188L118.006 162.03H113.988V188H97.2303V119.204H125.356C130.779 119.204 135.385 120.151 139.174 122.046C143.029 123.941 145.904 126.554 147.798 129.886C149.693 133.153 150.64 136.811 150.64 140.862C150.64 145.435 149.334 149.519 146.72 153.112C144.172 156.705 140.383 159.253 135.352 160.756L151.228 188H132.314ZM113.988 150.172H124.376C127.447 150.172 129.734 149.421 131.236 147.918C132.804 146.415 133.588 144.292 133.588 141.548C133.588 138.935 132.804 136.877 131.236 135.374C129.734 133.871 127.447 133.12 124.376 133.12H113.988V150.172ZM177.918 132.63V146.546H200.36V159.482H177.918V174.574H203.3V188H161.16V119.204H203.3V132.63H177.918ZM292.09 119.204V188H275.332V146.742L259.946 188H246.422L230.938 146.644V188H214.18V119.204H233.976L253.282 166.832L272.392 119.204H292.09ZM320.898 119.204V188H304.14V119.204H320.898ZM349.507 119.204V160.364C349.507 164.48 350.519 167.649 352.545 169.87C354.57 172.091 357.543 173.202 361.463 173.202C365.383 173.202 368.388 172.091 370.479 169.87C372.569 167.649 373.615 164.48 373.615 160.364V119.204H390.373V160.266C390.373 166.407 389.066 171.601 386.453 175.848C383.839 180.095 380.311 183.296 375.869 185.452C371.491 187.608 366.591 188.686 361.169 188.686C355.746 188.686 350.879 187.641 346.567 185.55C342.32 183.394 338.955 180.193 336.473 175.946C333.99 171.634 332.749 166.407 332.749 160.266V119.204H349.507ZM480.05 119.204V188H463.292V146.742L447.906 188H434.382L418.898 146.644V188H402.14V119.204H421.936L441.242 166.832L460.352 119.204H480.05Z" fill="white"/>
</g>
</svg>
