<svg width="519" height="282" viewBox="0 0 519 282" fill="none" xmlns="http://www.w3.org/2000/svg">
<mask id="mask0_556_88" style="mask-type:alpha" maskUnits="userSpaceOnUse" x="0" y="0" width="519" height="282">
<rect width="519" height="282" fill="#C4C4C4"/>
</mask>
<g mask="url(#mask0_556_88)">
<path d="M66.9632 156.283C65.9035 147.652 76.507 142.708 82.4373 149.067V149.067C85.0894 151.911 89.2712 152.724 92.7956 151.081V151.081C100.676 147.406 108.655 155.963 104.44 163.568V163.568C102.555 166.969 103.074 171.197 105.726 174.041V174.041C111.656 180.401 105.984 190.633 97.4483 188.974V188.974C93.631 188.232 89.7701 190.033 87.8848 193.434V193.434C83.6692 201.039 72.1845 198.807 71.1247 190.176V190.176C70.6508 186.316 67.7455 183.201 63.9282 182.459V182.459C55.3925 180.799 53.9667 169.187 61.8474 165.512V165.512C65.3718 163.869 67.4371 160.143 66.9632 156.283V156.283Z" fill="#FF42A7"/>
<path d="M182.889 240.05C175.277 233.243 180.242 220.641 190.451 220.853L192.244 220.891C195.454 220.958 198.533 219.619 200.673 217.226L201.869 215.889C208.676 208.277 221.279 213.241 221.066 223.451L221.029 225.244C220.962 228.454 222.3 231.533 224.694 233.673L226.031 234.869C233.642 241.676 228.678 254.279 218.469 254.066L216.675 254.028C213.465 253.961 210.387 255.3 208.247 257.693L207.051 259.031C200.244 266.642 187.641 261.678 187.854 251.469L187.891 249.675C187.958 246.465 186.619 243.386 184.226 241.246L182.889 240.05Z" fill="#FF42A7"/>
<path d="M263.429 40.2424C269.891 34.424 280.023 40.2739 278.216 48.7793V48.7793C277.407 52.5831 279.14 56.4748 282.508 58.4192V58.4192C290.038 62.7669 287.605 74.2109 278.958 75.1198V75.1198C275.09 75.5263 271.924 78.3769 271.116 82.1806V82.1806C269.308 90.686 257.672 91.909 254.136 83.9653V83.9653C252.554 80.4128 248.865 78.2827 244.997 78.6892V78.6892C236.349 79.5981 231.591 68.91 238.053 63.0916V63.0916C240.943 60.4895 241.828 56.3225 240.247 52.77V52.77C236.71 44.8263 245.404 36.9977 252.935 41.3454V41.3454C256.303 43.2898 260.539 42.8445 263.429 40.2424V40.2424Z" fill="#FF42A7"/>
<path d="M420.554 129.443C426.582 121.655 439.021 125.105 440.177 134.885L441.665 147.475C441.781 148.463 442.032 149.431 442.408 150.352L447.211 162.085C450.942 171.199 441.735 180.247 432.687 176.357L421.04 171.351C420.126 170.958 419.163 170.691 418.177 170.557L405.615 168.85C395.856 167.524 392.624 155.026 400.516 149.135L410.675 141.551C411.473 140.956 412.186 140.256 412.795 139.469L420.554 129.443Z" fill="#FF42A7"/>
<rect x="179" y="103" width="162" height="89" rx="17" fill="#FF42A7"/>
<rect x="34" y="25" width="139" height="70" rx="17" fill="#2A2A37"/>
<rect x="350" y="197" width="139" height="70" rx="17" fill="#2A2A37"/>
<rect x="337" y="29" width="132" height="70" rx="17" fill="#2A2A37"/>
<path d="M235.184 138.56C234.196 136.74 232.766 135.362 230.894 134.426C229.074 133.438 226.916 132.944 224.42 132.944C220.104 132.944 216.646 134.374 214.046 137.234C211.446 140.042 210.146 143.812 210.146 148.544C210.146 153.588 211.498 157.54 214.202 160.4C216.958 163.208 220.728 164.612 225.512 164.612C228.788 164.612 231.544 163.78 233.78 162.116C236.068 160.452 237.732 158.06 238.772 154.94H221.846V145.112H250.862V157.514C249.874 160.842 248.184 163.936 245.792 166.796C243.452 169.656 240.462 171.97 236.822 173.738C233.182 175.506 229.074 176.39 224.498 176.39C219.09 176.39 214.254 175.22 209.99 172.88C205.778 170.488 202.476 167.186 200.084 162.974C197.744 158.762 196.574 153.952 196.574 148.544C196.574 143.136 197.744 138.326 200.084 134.114C202.476 129.85 205.778 126.548 209.99 124.208C214.202 121.816 219.012 120.62 224.42 120.62C230.972 120.62 236.484 122.206 240.956 125.378C245.48 128.55 248.47 132.944 249.926 138.56H235.184ZM271.588 121.244V176H258.25V121.244H271.588ZM316.9 121.244V131.93H294.592V143.474H311.284V153.848H294.592V176H281.254V121.244H316.9Z" fill="white"/>
<path d="M76.626 52.392C76.626 54.7507 76.0847 56.916 75.002 58.888C73.9193 60.8213 72.2567 62.3873 70.014 63.586C67.7713 64.7847 64.9873 65.384 61.662 65.384H55.514V80H45.596V39.284H61.662C64.91 39.284 67.6553 39.8447 69.898 40.966C72.1407 42.0873 73.8227 43.634 74.944 45.606C76.0653 47.578 76.626 49.84 76.626 52.392ZM60.908 57.496C62.8027 57.496 64.214 57.0513 65.142 56.162C66.07 55.2727 66.534 54.016 66.534 52.392C66.534 50.768 66.07 49.5113 65.142 48.622C64.214 47.7327 62.8027 47.288 60.908 47.288H55.514V57.496H60.908ZM118.213 80H108.295L91.7074 54.886V80H81.7894V39.284H91.7074L108.295 64.514V39.284H118.213V80ZM152.431 52.16C151.696 50.8067 150.633 49.782 149.241 49.086C147.887 48.3513 146.283 47.984 144.427 47.984C141.217 47.984 138.646 49.0473 136.713 51.174C134.779 53.262 133.813 56.0653 133.813 59.584C133.813 63.3347 134.818 66.2733 136.829 68.4C138.878 70.488 141.681 71.532 145.239 71.532C147.675 71.532 149.724 70.9133 151.387 69.676C153.088 68.4387 154.325 66.66 155.099 64.34H142.513V57.032H164.089V66.254C163.354 68.7287 162.097 71.0293 160.319 73.156C158.579 75.2827 156.355 77.0033 153.649 78.318C150.942 79.6327 147.887 80.29 144.485 80.29C140.463 80.29 136.867 79.42 133.697 77.68C130.565 75.9013 128.109 73.446 126.331 70.314C124.591 67.182 123.721 63.6053 123.721 59.584C123.721 55.5627 124.591 51.986 126.331 48.854C128.109 45.6833 130.565 43.228 133.697 41.488C136.829 39.7093 140.405 38.82 144.427 38.82C149.299 38.82 153.397 39.9993 156.723 42.358C160.087 44.7167 162.31 47.984 163.393 52.16H152.431Z" fill="white"/>
<path d="M376.328 252.406C373.351 252.406 370.683 251.923 368.324 250.956C365.965 249.989 364.071 248.559 362.64 246.664C361.248 244.769 360.513 242.488 360.436 239.82H370.992C371.147 241.328 371.669 242.488 372.558 243.3C373.447 244.073 374.607 244.46 376.038 244.46C377.507 244.46 378.667 244.131 379.518 243.474C380.369 242.778 380.794 241.831 380.794 240.632C380.794 239.627 380.446 238.795 379.75 238.138C379.093 237.481 378.261 236.939 377.256 236.514C376.289 236.089 374.897 235.605 373.08 235.064C370.451 234.252 368.305 233.44 366.642 232.628C364.979 231.816 363.549 230.617 362.35 229.032C361.151 227.447 360.552 225.378 360.552 222.826C360.552 219.037 361.925 216.079 364.67 213.952C367.415 211.787 370.992 210.704 375.4 210.704C379.885 210.704 383.501 211.787 386.246 213.952C388.991 216.079 390.461 219.056 390.654 222.884H379.924C379.847 221.569 379.363 220.545 378.474 219.81C377.585 219.037 376.444 218.65 375.052 218.65C373.853 218.65 372.887 218.979 372.152 219.636C371.417 220.255 371.05 221.163 371.05 222.362C371.05 223.677 371.669 224.701 372.906 225.436C374.143 226.171 376.077 226.963 378.706 227.814C381.335 228.703 383.462 229.554 385.086 230.366C386.749 231.178 388.179 232.357 389.378 233.904C390.577 235.451 391.176 237.442 391.176 239.878C391.176 242.198 390.577 244.305 389.378 246.2C388.218 248.095 386.517 249.603 384.274 250.724C382.031 251.845 379.383 252.406 376.328 252.406ZM435.502 211.284L421.06 252H408.648L394.206 211.284H404.762L414.854 242.024L425.004 211.284H435.502ZM466.675 224.16C465.94 222.807 464.877 221.782 463.485 221.086C462.131 220.351 460.527 219.984 458.671 219.984C455.461 219.984 452.89 221.047 450.957 223.174C449.023 225.262 448.057 228.065 448.057 231.584C448.057 235.335 449.062 238.273 451.073 240.4C453.122 242.488 455.925 243.532 459.483 243.532C461.919 243.532 463.968 242.913 465.631 241.676C467.332 240.439 468.569 238.66 469.343 236.34H456.757V229.032H478.333V238.254C477.598 240.729 476.341 243.029 474.563 245.156C472.823 247.283 470.599 249.003 467.893 250.318C465.186 251.633 462.131 252.29 458.729 252.29C454.707 252.29 451.111 251.42 447.941 249.68C444.809 247.901 442.353 245.446 440.575 242.314C438.835 239.182 437.965 235.605 437.965 231.584C437.965 227.563 438.835 223.986 440.575 220.854C442.353 217.683 444.809 215.228 447.941 213.488C451.073 211.709 454.649 210.82 458.671 210.82C463.543 210.82 467.641 211.999 470.967 214.358C474.331 216.717 476.554 219.984 477.637 224.16H466.675Z" fill="white"/>
<path d="M374.116 43.284V71.008C374.116 75.3 372.898 78.606 370.462 80.926C368.065 83.246 364.817 84.406 360.718 84.406C356.426 84.406 352.985 83.188 350.394 80.752C347.803 78.316 346.508 74.8553 346.508 70.37H356.368C356.368 72.0713 356.716 73.3667 357.412 74.256C358.108 75.1067 359.113 75.532 360.428 75.532C361.627 75.532 362.555 75.1453 363.212 74.372C363.869 73.5987 364.198 72.4773 364.198 71.008V43.284H374.116ZM413.157 56.392C413.157 58.7507 412.616 60.916 411.533 62.888C410.451 64.8213 408.788 66.3873 406.545 67.586C404.303 68.7847 401.519 69.384 398.193 69.384H392.045V84H382.127V43.284H398.193C401.441 43.284 404.187 43.8447 406.429 44.966C408.672 46.0873 410.354 47.634 411.475 49.606C412.597 51.578 413.157 53.84 413.157 56.392ZM397.439 61.496C399.334 61.496 400.745 61.0513 401.673 60.162C402.601 59.2727 403.065 58.016 403.065 56.392C403.065 54.768 402.601 53.5113 401.673 52.622C400.745 51.7327 399.334 51.288 397.439 51.288H392.045V61.496H397.439ZM445.349 56.16C444.614 54.8067 443.551 53.782 442.159 53.086C440.805 52.3513 439.201 51.984 437.345 51.984C434.135 51.984 431.564 53.0473 429.631 55.174C427.697 57.262 426.731 60.0653 426.731 63.584C426.731 67.3347 427.736 70.2733 429.747 72.4C431.796 74.488 434.599 75.532 438.157 75.532C440.593 75.532 442.642 74.9133 444.305 73.676C446.006 72.4387 447.243 70.66 448.017 68.34H435.431V61.032H457.007V70.254C456.272 72.7287 455.015 75.0293 453.237 77.156C451.497 79.2827 449.273 81.0033 446.567 82.318C443.86 83.6327 440.805 84.29 437.403 84.29C433.381 84.29 429.785 83.42 426.615 81.68C423.483 79.9013 421.027 77.446 419.249 74.314C417.509 71.182 416.639 67.6053 416.639 63.584C416.639 59.5627 417.509 55.986 419.249 52.854C421.027 49.6833 423.483 47.228 426.615 45.488C429.747 43.7093 433.323 42.82 437.345 42.82C442.217 42.82 446.315 43.9993 449.641 46.358C453.005 48.7167 455.228 51.984 456.311 56.16H445.349Z" fill="white"/>
</g>
</svg>
