<svg height="100%" viewBox="0 0 802 188" fill="none" xmlns="http://www.w3.org/2000/svg">
<mask id="mask0_562_2" style="mask-type:alpha" maskUnits="userSpaceOnUse" x="0" y="0" width="802" height="188">
<rect width="802" height="188" fill="#C4C4C4"/>
</mask>
<g mask="url(#mask0_562_2)">
<rect x="1" width="495" height="161" rx="27.3067" fill="#FF42A7"/>
<path d="M116.619 61.7867C116.619 69.0684 114.912 75.7244 111.499 81.7547C108.199 87.6711 103.136 92.4498 96.3093 96.0907C89.5965 99.6178 81.3476 101.381 71.5627 101.381H55.008V142H21.5573V21.68H71.5627C81.2338 21.68 89.4258 23.3867 96.1387 26.8C102.965 30.2133 108.085 34.9351 111.499 40.9653C114.912 46.9955 116.619 53.936 116.619 61.7867ZM68.32 74.7573C77.7636 74.7573 82.4853 70.4338 82.4853 61.7867C82.4853 53.0258 77.7636 48.6453 68.32 48.6453H55.008V74.7573H68.32ZM163.508 63.152C167.263 57.6907 171.814 53.3671 177.161 50.1813C182.509 46.9955 188.255 45.4027 194.399 45.4027V81.072H185.012C177.73 81.072 172.326 82.4942 168.799 85.3387C165.272 88.1831 163.508 93.1324 163.508 100.187V142H130.057V46.256H163.508V63.152ZM297.868 93.0187C297.868 95.6356 297.697 98.2524 297.356 100.869H234.039C234.38 106.103 235.802 110.028 238.305 112.645C240.922 115.148 244.222 116.4 248.204 116.4C253.779 116.4 257.761 113.897 260.151 108.891H295.82C294.341 115.49 291.44 121.406 287.116 126.64C282.906 131.76 277.559 135.799 271.073 138.757C264.588 141.716 257.42 143.195 249.569 143.195C240.126 143.195 231.706 141.204 224.311 137.221C217.029 133.239 211.283 127.55 207.073 120.155C202.977 112.759 200.929 104.055 200.929 94.0427C200.929 84.0302 202.977 75.3831 207.073 68.1013C211.169 60.7058 216.858 55.0169 224.14 51.0347C231.536 47.0524 240.012 45.0613 249.569 45.0613C259.013 45.0613 267.376 46.9955 274.657 50.864C281.939 54.7324 287.628 60.3076 291.724 67.5893C295.82 74.7573 297.868 83.2338 297.868 93.0187ZM263.735 84.656C263.735 80.56 262.369 77.3742 259.639 75.0987C256.908 72.7093 253.495 71.5147 249.399 71.5147C245.303 71.5147 241.946 72.6524 239.329 74.928C236.712 77.0898 235.006 80.3324 234.209 84.656H263.735ZM436.656 45.4027C448.716 45.4027 458.16 49.0435 464.987 56.3253C471.927 63.6071 475.397 73.5627 475.397 86.192V142H441.947V90.6293C441.947 85.5093 440.524 81.5271 437.68 78.6827C434.836 75.8382 430.967 74.416 426.075 74.416C421.182 74.416 417.314 75.8382 414.469 78.6827C411.625 81.5271 410.203 85.5093 410.203 90.6293V142H376.752V90.6293C376.752 85.5093 375.33 81.5271 372.485 78.6827C369.755 75.8382 365.943 74.416 361.051 74.416C356.044 74.416 352.119 75.8382 349.275 78.6827C346.43 81.5271 345.008 85.5093 345.008 90.6293V142H311.557V46.256H345.008V58.8853C347.966 54.7893 351.778 51.5467 356.443 49.1573C361.221 46.6542 366.683 45.4027 372.827 45.4027C379.881 45.4027 386.139 46.9387 391.6 50.0107C397.175 53.0827 401.556 57.4062 404.741 62.9813C408.155 57.7476 412.649 53.5378 418.224 50.352C423.799 47.0524 429.943 45.4027 436.656 45.4027Z" fill="white"/>
<path d="M573.048 113.499V142H558.541C534.079 142 521.848 129.883 521.848 105.648V74.0747H510.072V46.256H521.848V23.0453H555.469V46.256H572.877V74.0747H555.469V106.16C555.469 108.777 556.038 110.654 557.176 111.792C558.428 112.93 560.476 113.499 563.32 113.499H573.048ZM632.935 143.195C623.377 143.195 614.787 141.204 607.164 137.221C599.655 133.239 593.738 127.55 589.415 120.155C585.091 112.759 582.929 104.055 582.929 94.0427C582.929 84.144 585.091 75.4969 589.415 68.1013C593.852 60.7058 599.825 55.0169 607.335 51.0347C614.958 47.0524 623.548 45.0613 633.105 45.0613C642.663 45.0613 651.196 47.0524 658.705 51.0347C666.328 55.0169 672.302 60.7058 676.625 68.1013C681.063 75.4969 683.281 84.144 683.281 94.0427C683.281 103.941 681.063 112.645 676.625 120.155C672.302 127.55 666.328 133.239 658.705 137.221C651.082 141.204 642.492 143.195 632.935 143.195ZM632.935 114.181C637.6 114.181 641.468 112.475 644.54 109.061C647.726 105.534 649.319 100.528 649.319 94.0427C649.319 87.5573 647.726 82.608 644.54 79.1947C641.468 75.7813 637.656 74.0747 633.105 74.0747C628.554 74.0747 624.743 75.7813 621.671 79.1947C618.599 82.608 617.063 87.5573 617.063 94.0427C617.063 100.642 618.542 105.648 621.5 109.061C624.458 112.475 628.27 114.181 632.935 114.181ZM730.341 59.568C732.958 55.1307 736.656 51.6036 741.435 48.9867C746.213 46.3698 751.845 45.0613 758.331 45.0613C765.954 45.0613 772.837 47.0524 778.981 51.0347C785.239 55.0169 790.132 60.7058 793.659 68.1013C797.3 75.4969 799.12 84.144 799.12 94.0427C799.12 103.941 797.3 112.645 793.659 120.155C790.132 127.55 785.239 133.239 778.981 137.221C772.837 141.204 765.954 143.195 758.331 143.195C751.845 143.195 746.213 141.886 741.435 139.269C736.77 136.652 733.072 133.125 730.341 128.688V187.739H696.891V46.256H730.341V59.568ZM765.157 94.0427C765.157 87.7849 763.451 82.9493 760.037 79.536C756.738 76.0089 752.642 74.2453 747.749 74.2453C742.857 74.2453 738.704 76.0089 735.291 79.536C731.991 83.0631 730.341 87.8987 730.341 94.0427C730.341 100.3 731.991 105.193 735.291 108.72C738.704 112.247 742.857 114.011 747.749 114.011C752.642 114.011 756.738 112.247 760.037 108.72C763.451 105.079 765.157 100.187 765.157 94.0427Z" fill="#FF42A7"/>
</g>
</svg>
