<svg width="519" height="282" viewBox="0 0 519 282" fill="none" xmlns="http://www.w3.org/2000/svg">
<mask id="mask0_556_170" style="mask-type:alpha" maskUnits="userSpaceOnUse" x="0" y="0" width="519" height="282">
<rect width="519" height="282" fill="#C4C4C4"/>
</mask>
<g mask="url(#mask0_556_170)">
<path d="M64.7897 35.5653C66.1767 25.4485 79.4009 22.5168 84.9334 31.0996L85.9054 32.6074C87.6448 35.3058 90.4763 37.1097 93.6569 37.5457L95.4343 37.7894C105.551 39.1763 108.483 52.4005 99.9001 57.933L98.3922 58.905C95.6938 60.6444 93.8899 63.4759 93.4539 66.6566L93.2102 68.434C91.8233 78.5508 78.5991 81.4825 73.0666 72.8997L72.0946 71.3918C70.3552 68.6934 67.5237 66.8896 64.343 66.4535L62.5656 66.2099C52.4488 64.8229 49.5171 51.5988 58.0999 46.0662L59.6078 45.0942C62.3062 43.3548 64.11 40.5234 64.5461 37.3427L64.7897 35.5653Z" fill="#FF42A7"/>
<path d="M172.759 201.29C179.612 195.937 189.311 202.479 186.914 210.838V210.838C185.842 214.576 187.299 218.579 190.523 220.754V220.754C197.732 225.616 194.507 236.862 185.817 237.166V237.166C181.931 237.302 178.574 239.924 177.502 243.662V243.662C175.105 252.021 163.413 252.429 160.439 244.258V244.258C159.109 240.604 155.577 238.222 151.69 238.358V238.358C143 238.661 138.999 227.667 145.851 222.314V222.314C148.915 219.919 150.089 215.824 148.759 212.17V212.17C145.785 203.999 155.005 196.796 162.214 201.659V201.659C165.438 203.833 169.695 203.684 172.759 201.29V201.29Z" fill="#FF42A7"/>
<path d="M359.931 226.126C359.184 215.942 371.51 210.325 378.706 217.57L379.97 218.843C382.233 221.12 385.377 222.296 388.579 222.061L390.368 221.93C400.552 221.183 406.169 233.509 398.924 240.705L397.652 241.969C395.374 244.232 394.198 247.377 394.433 250.578L394.564 252.368C395.311 262.552 382.985 268.169 375.789 260.924L374.525 259.651C372.262 257.373 369.118 256.197 365.916 256.432L364.127 256.563C353.943 257.31 348.326 244.985 355.571 237.788L356.843 236.524C359.121 234.262 360.297 231.117 360.062 227.915L359.931 226.126Z" fill="#FF42A7"/>
<path d="M272.896 49.6831C277.883 42.5602 289.072 45.9808 289.224 54.6749V54.6749C289.291 58.5631 291.855 61.9653 295.574 63.1023V63.1023C303.89 65.6446 304.094 77.3424 295.872 80.1734V80.1734C292.195 81.4395 289.752 84.9291 289.82 88.8172V88.8172C289.971 97.5114 278.909 101.32 273.676 94.3759V94.3759C271.336 91.2702 267.262 90.0247 263.585 91.2908V91.2908C255.363 94.1217 248.322 84.778 253.31 77.6551V77.6551C255.54 74.4696 255.466 70.2102 253.126 67.1045V67.1045C247.893 60.16 254.603 50.5762 262.919 53.1185V53.1185C266.637 54.2555 270.665 52.8685 272.896 49.6831V49.6831Z" fill="#FF42A7"/>
<path d="M429.917 26.5803C429.348 16.3847 441.77 10.9836 448.839 18.353L450.081 19.6477C452.303 21.9646 455.426 23.1951 458.632 23.0162L460.423 22.9163C470.619 22.3473 476.02 34.7692 468.65 41.8377L467.356 43.0796C465.039 45.3019 463.808 48.4255 463.987 51.631L464.087 53.4222C464.656 63.6178 452.234 69.0189 445.166 61.6495L443.924 60.3548C441.702 58.0378 438.578 56.8074 435.372 56.9863L433.581 57.0862C423.386 57.6552 417.985 45.2333 425.354 38.1648L426.649 36.9229C428.966 34.7006 430.196 31.577 430.017 28.3715L429.917 26.5803Z" fill="#FF42A7"/>
<path d="M49.2886 112.665C55.2046 112.665 59.9316 114.289 63.4696 117.537C67.0656 120.785 68.8636 125.222 68.8636 130.848C68.8636 136.706 67.0076 141.114 63.2956 144.072C59.5836 147.03 54.6536 148.509 48.5056 148.509L48.1576 155.382H39.5446L39.1096 141.723H41.9806C47.6066 141.723 51.8986 140.969 54.8566 139.461C57.8726 137.953 59.3806 135.082 59.3806 130.848C59.3806 127.774 58.4816 125.367 56.6836 123.627C54.9436 121.887 52.5076 121.017 49.3756 121.017C46.2436 121.017 43.7786 121.858 41.9806 123.54C40.1826 125.222 39.2836 127.571 39.2836 130.587H29.9746C29.9746 127.107 30.7576 124.004 32.3236 121.278C33.8896 118.552 36.1226 116.435 39.0226 114.927C41.9806 113.419 45.4026 112.665 49.2886 112.665ZM43.7206 174.609C41.9226 174.609 40.4146 174 39.1966 172.782C37.9786 171.564 37.3696 170.056 37.3696 168.258C37.3696 166.46 37.9786 164.952 39.1966 163.734C40.4146 162.516 41.9226 161.907 43.7206 161.907C45.4606 161.907 46.9396 162.516 48.1576 163.734C49.3756 164.952 49.9846 166.46 49.9846 168.258C49.9846 170.056 49.3756 171.564 48.1576 172.782C46.9396 174 45.4606 174.609 43.7206 174.609ZM123.246 126.063V174H113.328V168.345C111.762 170.317 109.703 171.883 107.151 173.043C104.657 174.145 101.989 174.696 99.1471 174.696C95.3771 174.696 91.9841 173.913 88.9681 172.347C86.0101 170.781 83.6611 168.461 81.9211 165.387C80.2391 162.313 79.3981 158.601 79.3981 154.251V126.063H89.2291V152.772C89.2291 157.064 90.3021 160.37 92.4481 162.69C94.5941 164.952 97.5231 166.083 101.235 166.083C104.947 166.083 107.876 164.952 110.022 162.69C112.226 160.37 113.328 157.064 113.328 152.772V126.063H123.246ZM153.732 174.783C149.962 174.783 146.569 174.116 143.553 172.782C140.595 171.39 138.246 169.534 136.506 167.214C134.766 164.836 133.838 162.197 133.722 159.297H143.988C144.162 161.327 145.119 163.038 146.859 164.43C148.657 165.764 150.89 166.431 153.558 166.431C156.342 166.431 158.488 165.909 159.996 164.865C161.562 163.763 162.345 162.371 162.345 160.689C162.345 158.891 161.475 157.557 159.735 156.687C158.053 155.817 155.356 154.86 151.644 153.816C148.048 152.83 145.119 151.873 142.857 150.945C140.595 150.017 138.623 148.596 136.941 146.682C135.317 144.768 134.505 142.245 134.505 139.113C134.505 136.561 135.259 134.241 136.767 132.153C138.275 130.007 140.421 128.325 143.205 127.107C146.047 125.889 149.295 125.28 152.949 125.28C158.401 125.28 162.78 126.672 166.086 129.456C169.45 132.182 171.248 135.923 171.48 140.679H161.562C161.388 138.533 160.518 136.822 158.952 135.546C157.386 134.27 155.269 133.632 152.601 133.632C149.991 133.632 147.99 134.125 146.598 135.111C145.206 136.097 144.51 137.402 144.51 139.026C144.51 140.302 144.974 141.375 145.902 142.245C146.83 143.115 147.961 143.811 149.295 144.333C150.629 144.797 152.601 145.406 155.211 146.16C158.691 147.088 161.533 148.045 163.737 149.031C165.999 149.959 167.942 151.351 169.566 153.207C171.19 155.063 172.031 157.528 172.089 160.602C172.089 163.328 171.335 165.764 169.827 167.91C168.319 170.056 166.173 171.738 163.389 172.956C160.663 174.174 157.444 174.783 153.732 174.783ZM226.741 148.857C226.741 150.655 226.625 152.279 226.393 153.729H189.766C190.056 157.557 191.477 160.631 194.029 162.951C196.581 165.271 199.713 166.431 203.425 166.431C208.761 166.431 212.531 164.198 214.735 159.732H225.436C223.986 164.14 221.347 167.765 217.519 170.607C213.749 173.391 209.051 174.783 203.425 174.783C198.843 174.783 194.725 173.768 191.071 171.738C187.475 169.65 184.633 166.75 182.545 163.038C180.515 159.268 179.5 154.918 179.5 149.988C179.5 145.058 180.486 140.737 182.458 137.025C184.488 133.255 187.301 130.355 190.897 128.325C194.551 126.295 198.727 125.28 203.425 125.28C207.949 125.28 211.98 126.266 215.518 128.238C219.056 130.21 221.811 132.994 223.783 136.59C225.755 140.128 226.741 144.217 226.741 148.857ZM216.388 145.725C216.33 142.071 215.025 139.142 212.473 136.938C209.921 134.734 206.76 133.632 202.99 133.632C199.568 133.632 196.639 134.734 194.203 136.938C191.767 139.084 190.317 142.013 189.853 145.725H216.388ZM246.419 133.023C247.869 130.587 249.783 128.702 252.161 127.368C254.597 125.976 257.468 125.28 260.774 125.28V135.546H258.251C254.365 135.546 251.407 136.532 249.377 138.504C247.405 140.476 246.419 143.898 246.419 148.77V174H236.501V126.063H246.419V133.023ZM320.177 128.499V136.851H273.893V128.499H320.177ZM320.177 148.248V156.6H273.893V148.248H320.177Z" fill="white"/>
<path d="M360.494 137.808H352.49V174H337.613V137.808H332.219V125.454H337.613V124.062C337.613 118.088 339.324 113.564 342.746 110.49C346.168 107.358 351.185 105.792 357.797 105.792C358.899 105.792 359.711 105.821 360.233 105.879V118.494C357.391 118.32 355.39 118.726 354.23 119.712C353.07 120.698 352.49 122.467 352.49 125.019V125.454H360.494V137.808ZM382.361 109.62V174H367.484V109.62H382.361ZM438.905 148.944C438.905 150.336 438.818 151.786 438.644 153.294H404.975C405.207 156.31 406.164 158.63 407.846 160.254C409.586 161.82 411.703 162.603 414.197 162.603C417.909 162.603 420.49 161.037 421.94 157.905H437.774C436.962 161.095 435.483 163.966 433.337 166.518C431.249 169.07 428.61 171.071 425.42 172.521C422.23 173.971 418.663 174.696 414.719 174.696C409.963 174.696 405.729 173.681 402.017 171.651C398.305 169.621 395.405 166.721 393.317 162.951C391.229 159.181 390.185 154.773 390.185 149.727C390.185 144.681 391.2 140.273 393.23 136.503C395.318 132.733 398.218 129.833 401.93 127.803C405.642 125.773 409.905 124.758 414.719 124.758C419.417 124.758 423.593 125.744 427.247 127.716C430.901 129.688 433.743 132.501 435.773 136.155C437.861 139.809 438.905 144.072 438.905 148.944ZM423.68 145.029C423.68 142.477 422.81 140.447 421.07 138.939C419.33 137.431 417.155 136.677 414.545 136.677C412.051 136.677 409.934 137.402 408.194 138.852C406.512 140.302 405.468 142.361 405.062 145.029H423.68ZM475.463 174L466.154 160.515L458.324 174H442.229L458.237 149.205L441.794 125.454H458.498L467.807 138.852L475.637 125.454H491.732L475.463 149.901L492.167 174H475.463Z" fill="#FF42A7"/>
</g>
</svg>
