<svg width="519" height="282" viewBox="0 0 519 282" fill="none" xmlns="http://www.w3.org/2000/svg">
<mask id="mask0_556_49" style="mask-type:alpha" maskUnits="userSpaceOnUse" x="0" y="0" width="519" height="282">
<rect width="519" height="282" fill="#C4C4C4"/>
</mask>
<g mask="url(#mask0_556_49)">
<path d="M57.5384 32.1975C60.8313 22.0631 75.1687 22.0631 78.4616 32.1976L83.9405 49.0598C85.4131 53.592 89.6366 56.6606 94.4021 56.6606H112.132C122.788 56.6606 127.219 70.2964 118.598 76.5598L104.254 86.9812C100.399 89.7823 98.7853 94.7474 100.258 99.2796L105.737 116.142C109.03 126.276 97.4304 134.704 88.8095 128.44L74.4656 118.019C70.6103 115.218 65.3897 115.218 61.5344 118.019L47.1905 128.44C38.5696 134.704 26.9704 126.276 30.2632 116.142L35.7421 99.2796C37.2147 94.7473 35.6015 89.7823 31.7461 86.9812L17.4022 76.5598C8.78138 70.2964 13.2119 56.6606 23.8679 56.6606H41.5979C46.3634 56.6606 50.5869 53.592 52.0595 49.0598L57.5384 32.1975Z" fill="#FF42A7"/>
<path d="M50.579 215.168C46.313 205.891 55.8909 196.313 65.1685 200.579L77.4051 206.205C80.3219 207.546 83.6792 207.546 86.596 206.205L98.8326 200.579C108.11 196.313 117.688 205.891 113.422 215.168L107.796 227.405C106.454 230.322 106.454 233.679 107.796 236.596L113.422 248.832C117.688 258.11 108.11 267.688 98.8326 263.422L86.596 257.795C83.6792 256.454 80.3219 256.454 77.4051 257.795L65.1686 263.422C55.8909 267.688 46.313 258.11 50.579 248.832L56.2056 236.596C57.5468 233.679 57.5468 230.322 56.2056 227.405L50.579 215.168Z" fill="#FF42A7"/>
<path d="M219.684 11.8796C223.227 2.30276 236.773 2.30277 240.316 11.8796L240.939 13.5621C242.053 16.573 244.427 18.9469 247.438 20.061L249.12 20.6836C258.697 24.2274 258.697 37.7726 249.12 41.3164L247.438 41.939C244.427 43.0531 242.053 45.427 240.939 48.4379L240.316 50.1204C236.773 59.6972 223.227 59.6972 219.684 50.1204L219.061 48.4379C217.947 45.427 215.573 43.0531 212.562 41.939L210.88 41.3164C201.303 37.7726 201.303 24.2274 210.88 20.6836L212.562 20.061C215.573 18.9469 217.947 16.573 219.061 13.5621L219.684 11.8796Z" fill="#FF42A7"/>
<path d="M401.892 18.7344C401.418 8.89747 413.118 3.44191 420.348 10.1284L429.656 18.7358C430.386 19.4113 431.205 19.9846 432.09 20.4399L443.361 26.2425C452.118 30.7501 450.993 43.6099 441.587 46.5285L429.478 50.2856C428.528 50.5804 427.622 51.0028 426.786 51.5412L416.125 58.4015C407.843 63.7309 397.269 56.3266 399.444 46.7215L402.244 34.357C402.464 33.3867 402.551 32.3911 402.503 31.3973L401.892 18.7344Z" fill="#FF42A7"/>
<rect x="136" y="71" width="415" height="338" rx="32" fill="#2A2A37"/>
<rect x="148" y="83" width="405" height="89" rx="17" fill="#FF42A7"/>
<path d="M174.174 112.93V124.006H192.036V134.302H174.174V146.314H194.376V157H160.836V102.244H194.376V112.93H174.174ZM200.383 135.16C200.383 130.688 201.215 126.762 202.879 123.382C204.595 120.002 206.909 117.402 209.821 115.582C212.733 113.762 215.983 112.852 219.571 112.852C222.431 112.852 225.031 113.45 227.371 114.646C229.763 115.842 231.635 117.454 232.987 119.482V99.28H246.325V157H232.987V150.76C231.739 152.84 229.945 154.504 227.605 155.752C225.317 157 222.639 157.624 219.571 157.624C215.983 157.624 212.733 156.714 209.821 154.894C206.909 153.022 204.595 150.396 202.879 147.016C201.215 143.584 200.383 139.632 200.383 135.16ZM232.987 135.238C232.987 131.91 232.051 129.284 230.179 127.36C228.359 125.436 226.123 124.474 223.471 124.474C220.819 124.474 218.557 125.436 216.685 127.36C214.865 129.232 213.955 131.832 213.955 135.16C213.955 138.488 214.865 141.14 216.685 143.116C218.557 145.04 220.819 146.002 223.471 146.002C226.123 146.002 228.359 145.04 230.179 143.116C232.051 141.192 232.987 138.566 232.987 135.238ZM262.683 108.952C260.343 108.952 258.419 108.276 256.911 106.924C255.455 105.52 254.727 103.804 254.727 101.776C254.727 99.696 255.455 97.98 256.911 96.628C258.419 95.224 260.343 94.522 262.683 94.522C264.971 94.522 266.843 95.224 268.299 96.628C269.807 97.98 270.561 99.696 270.561 101.776C270.561 103.804 269.807 105.52 268.299 106.924C266.843 108.276 264.971 108.952 262.683 108.952ZM269.313 113.476V157H255.975V113.476H269.313ZM303.237 145.69V157H296.451C291.615 157 287.845 155.83 285.141 153.49C282.437 151.098 281.085 147.224 281.085 141.868V124.552H275.781V113.476H281.085V102.868H294.423V113.476H303.159V124.552H294.423V142.024C294.423 143.324 294.735 144.26 295.359 144.832C295.983 145.404 297.023 145.69 298.479 145.69H303.237ZM368.925 119.872C368.925 123.044 368.197 125.956 366.741 128.608C365.285 131.208 363.049 133.314 360.033 134.926C357.017 136.538 353.273 137.344 348.801 137.344H340.533V157H327.195V102.244H348.801C353.169 102.244 356.861 102.998 359.877 104.506C362.893 106.014 365.155 108.094 366.663 110.746C368.171 113.398 368.925 116.44 368.925 119.872ZM347.787 126.736C350.335 126.736 352.233 126.138 353.481 124.942C354.729 123.746 355.353 122.056 355.353 119.872C355.353 117.688 354.729 115.998 353.481 114.802C352.233 113.606 350.335 113.008 347.787 113.008H340.533V126.736H347.787ZM395.681 157.624C391.417 157.624 387.569 156.714 384.137 154.894C380.757 153.074 378.079 150.474 376.103 147.094C374.179 143.714 373.217 139.762 373.217 135.238C373.217 130.766 374.205 126.84 376.181 123.46C378.157 120.028 380.861 117.402 384.293 115.582C387.725 113.762 391.573 112.852 395.837 112.852C400.101 112.852 403.949 113.762 407.381 115.582C410.813 117.402 413.517 120.028 415.493 123.46C417.469 126.84 418.457 130.766 418.457 135.238C418.457 139.71 417.443 143.662 415.415 147.094C413.439 150.474 410.709 153.074 407.225 154.894C403.793 156.714 399.945 157.624 395.681 157.624ZM395.681 146.08C398.229 146.08 400.387 145.144 402.155 143.272C403.975 141.4 404.885 138.722 404.885 135.238C404.885 131.754 404.001 129.076 402.233 127.204C400.517 125.332 398.385 124.396 395.837 124.396C393.237 124.396 391.079 125.332 389.363 127.204C387.647 129.024 386.789 131.702 386.789 135.238C386.789 138.722 387.621 141.4 389.285 143.272C391.001 145.144 393.133 146.08 395.681 146.08ZM443.239 157.624C439.443 157.624 436.063 156.974 433.099 155.674C430.135 154.374 427.795 152.606 426.079 150.37C424.363 148.082 423.401 145.534 423.193 142.726H436.375C436.531 144.234 437.233 145.456 438.481 146.392C439.729 147.328 441.263 147.796 443.083 147.796C444.747 147.796 446.021 147.484 446.905 146.86C447.841 146.184 448.309 145.326 448.309 144.286C448.309 143.038 447.659 142.128 446.359 141.556C445.059 140.932 442.953 140.256 440.041 139.528C436.921 138.8 434.321 138.046 432.241 137.266C430.161 136.434 428.367 135.16 426.859 133.444C425.351 131.676 424.597 129.31 424.597 126.346C424.597 123.85 425.273 121.588 426.625 119.56C428.029 117.48 430.057 115.842 432.709 114.646C435.413 113.45 438.611 112.852 442.303 112.852C447.763 112.852 452.053 114.204 455.173 116.908C458.345 119.612 460.165 123.2 460.633 127.672H448.309C448.101 126.164 447.425 124.968 446.281 124.084C445.189 123.2 443.733 122.758 441.913 122.758C440.353 122.758 439.157 123.07 438.325 123.694C437.493 124.266 437.077 125.072 437.077 126.112C437.077 127.36 437.727 128.296 439.027 128.92C440.379 129.544 442.459 130.168 445.267 130.792C448.491 131.624 451.117 132.456 453.145 133.288C455.173 134.068 456.941 135.368 458.449 137.188C460.009 138.956 460.815 141.348 460.867 144.364C460.867 146.912 460.139 149.2 458.683 151.228C457.279 153.204 455.225 154.764 452.521 155.908C449.869 157.052 446.775 157.624 443.239 157.624ZM493.285 145.69V157H486.499C481.663 157 477.893 155.83 475.189 153.49C472.485 151.098 471.133 147.224 471.133 141.868V124.552H465.829V113.476H471.133V102.868H484.471V113.476H493.207V124.552H484.471V142.024C484.471 143.324 484.783 144.26 485.407 144.832C486.031 145.404 487.071 145.69 488.527 145.69H493.285Z" fill="white"/>
<path d="M178.386 190.478C184.418 190.478 189.592 191.57 193.908 193.754C198.224 195.938 201.526 199.084 203.814 203.192C206.102 207.3 207.246 212.188 207.246 217.856C207.246 223.472 206.102 228.334 203.814 232.442C201.526 236.498 198.224 239.618 193.908 241.802C189.592 243.934 184.418 245 178.386 245H162.24V190.478H178.386ZM178.386 240.476C185.978 240.476 191.75 238.5 195.702 234.548C199.706 230.544 201.708 224.98 201.708 217.856C201.708 210.68 199.706 205.09 195.702 201.086C191.75 197.03 185.978 195.002 178.386 195.002H167.7V240.476H178.386ZM255.844 221.522C255.844 223.394 255.792 224.824 255.688 225.812H220.354C220.51 229.036 221.29 231.792 222.694 234.08C224.098 236.368 225.944 238.11 228.232 239.306C230.52 240.45 233.016 241.022 235.72 241.022C239.256 241.022 242.22 240.164 244.612 238.448C247.056 236.732 248.668 234.418 249.448 231.506H255.22C254.18 235.666 251.944 239.072 248.512 241.724C245.132 244.324 240.868 245.624 235.72 245.624C231.716 245.624 228.128 244.74 224.956 242.972C221.784 241.152 219.288 238.604 217.468 235.328C215.7 232 214.816 228.126 214.816 223.706C214.816 219.286 215.7 215.412 217.468 212.084C219.236 208.756 221.706 206.208 224.878 204.44C228.05 202.672 231.664 201.788 235.72 201.788C239.776 201.788 243.312 202.672 246.328 204.44C249.396 206.208 251.736 208.6 253.348 211.616C255.012 214.58 255.844 217.882 255.844 221.522ZM250.306 221.366C250.358 218.194 249.708 215.49 248.356 213.254C247.056 211.018 245.262 209.328 242.974 208.184C240.686 207.04 238.19 206.468 235.486 206.468C231.43 206.468 227.972 207.768 225.112 210.368C222.252 212.968 220.666 216.634 220.354 221.366H250.306ZM271.294 187.28V245H265.834V187.28H271.294ZM322.19 221.522C322.19 223.394 322.138 224.824 322.034 225.812H286.7C286.856 229.036 287.636 231.792 289.04 234.08C290.444 236.368 292.29 238.11 294.578 239.306C296.866 240.45 299.362 241.022 302.066 241.022C305.602 241.022 308.566 240.164 310.958 238.448C313.402 236.732 315.014 234.418 315.794 231.506H321.566C320.526 235.666 318.29 239.072 314.858 241.724C311.478 244.324 307.214 245.624 302.066 245.624C298.062 245.624 294.474 244.74 291.302 242.972C288.13 241.152 285.634 238.604 283.814 235.328C282.046 232 281.162 228.126 281.162 223.706C281.162 219.286 282.046 215.412 283.814 212.084C285.582 208.756 288.052 206.208 291.224 204.44C294.396 202.672 298.01 201.788 302.066 201.788C306.122 201.788 309.658 202.672 312.674 204.44C315.742 206.208 318.082 208.6 319.694 211.616C321.358 214.58 322.19 217.882 322.19 221.522ZM316.652 221.366C316.704 218.194 316.054 215.49 314.702 213.254C313.402 211.018 311.608 209.328 309.32 208.184C307.032 207.04 304.536 206.468 301.832 206.468C297.776 206.468 294.318 207.768 291.458 210.368C288.598 212.968 287.012 216.634 286.7 221.366H316.652ZM339.277 207.014V233.456C339.277 236.056 339.771 237.85 340.759 238.838C341.747 239.826 343.489 240.32 345.985 240.32H350.977V245H345.127C341.279 245 338.419 244.116 336.547 242.348C334.675 240.528 333.739 237.564 333.739 233.456V207.014H327.811V202.412H333.739V191.726H339.277V202.412H350.977V207.014H339.277ZM398.514 221.522C398.514 223.394 398.462 224.824 398.358 225.812H363.024C363.18 229.036 363.96 231.792 365.364 234.08C366.768 236.368 368.614 238.11 370.902 239.306C373.19 240.45 375.686 241.022 378.39 241.022C381.926 241.022 384.89 240.164 387.282 238.448C389.726 236.732 391.338 234.418 392.118 231.506H397.89C396.85 235.666 394.614 239.072 391.182 241.724C387.802 244.324 383.538 245.624 378.39 245.624C374.386 245.624 370.798 244.74 367.626 242.972C364.454 241.152 361.958 238.604 360.138 235.328C358.37 232 357.486 228.126 357.486 223.706C357.486 219.286 358.37 215.412 360.138 212.084C361.906 208.756 364.376 206.208 367.548 204.44C370.72 202.672 374.334 201.788 378.39 201.788C382.446 201.788 385.982 202.672 388.998 204.44C392.066 206.208 394.406 208.6 396.018 211.616C397.682 214.58 398.514 217.882 398.514 221.522ZM392.976 221.366C393.028 218.194 392.378 215.49 391.026 213.254C389.726 211.018 387.932 209.328 385.644 208.184C383.356 207.04 380.86 206.468 378.156 206.468C374.1 206.468 370.642 207.768 367.782 210.368C364.922 212.968 363.336 216.634 363.024 221.366H392.976ZM464.774 206.156C464.774 210.836 463.24 214.606 460.172 217.466C457.104 220.326 452.502 221.756 446.366 221.756H435.368V245H429.908V190.478H446.366C452.45 190.478 457.026 191.908 460.094 194.768C463.214 197.628 464.774 201.424 464.774 206.156ZM446.366 217.076C454.894 217.076 459.158 213.436 459.158 206.156C459.158 202.516 458.144 199.76 456.116 197.888C454.088 196.016 450.838 195.08 446.366 195.08H435.368V217.076H446.366ZM492.577 245.624C488.573 245.624 484.959 244.74 481.735 242.972C478.563 241.152 476.041 238.604 474.169 235.328C472.349 232 471.439 228.126 471.439 223.706C471.439 219.286 472.375 215.438 474.247 212.162C476.119 208.834 478.667 206.286 481.891 204.518C485.115 202.698 488.729 201.788 492.733 201.788C496.737 201.788 500.351 202.698 503.575 204.518C506.851 206.286 509.399 208.834 511.219 212.162C513.091 215.438 514.027 219.286 514.027 223.706C514.027 228.074 513.091 231.922 511.219 235.25C509.347 238.578 506.773 241.152 503.497 242.972C500.221 244.74 496.581 245.624 492.577 245.624ZM492.577 240.866C495.385 240.866 497.985 240.242 500.377 238.994C502.769 237.694 504.693 235.77 506.149 233.222C507.657 230.622 508.411 227.45 508.411 223.706C508.411 219.962 507.683 216.816 506.227 214.268C504.771 211.668 502.847 209.744 500.455 208.496C498.063 207.196 495.463 206.546 492.655 206.546C489.847 206.546 487.247 207.196 484.855 208.496C482.463 209.744 480.539 211.668 479.083 214.268C477.679 216.816 476.977 219.962 476.977 223.706C476.977 227.45 477.679 230.622 479.083 233.222C480.539 235.77 482.437 237.694 484.777 238.994C487.169 240.242 489.769 240.866 492.577 240.866ZM538.644 245.624C533.756 245.624 529.752 244.506 526.632 242.27C523.564 239.982 521.848 236.888 521.484 232.988H527.1C527.36 235.38 528.478 237.33 530.454 238.838C532.482 240.294 535.186 241.022 538.566 241.022C541.53 241.022 543.844 240.32 545.508 238.916C547.224 237.512 548.082 235.77 548.082 233.69C548.082 232.234 547.614 231.038 546.678 230.102C545.742 229.166 544.546 228.438 543.09 227.918C541.686 227.346 539.762 226.748 537.318 226.124C534.146 225.292 531.572 224.46 529.596 223.628C527.62 222.796 525.93 221.574 524.526 219.962C523.174 218.298 522.498 216.088 522.498 213.332C522.498 211.252 523.122 209.328 524.37 207.56C525.618 205.792 527.386 204.388 529.674 203.348C531.962 202.308 534.562 201.788 537.474 201.788C542.05 201.788 545.742 202.958 548.55 205.298C551.358 207.586 552.866 210.758 553.074 214.814H547.614C547.458 212.318 546.47 210.316 544.65 208.808C542.882 207.248 540.438 206.468 537.318 206.468C534.562 206.468 532.326 207.118 530.61 208.418C528.894 209.718 528.036 211.33 528.036 213.254C528.036 214.918 528.53 216.296 529.518 217.388C530.558 218.428 531.832 219.26 533.34 219.884C534.848 220.456 536.876 221.106 539.424 221.834C542.492 222.666 544.936 223.472 546.756 224.252C548.576 225.032 550.136 226.176 551.436 227.684C552.736 229.192 553.412 231.194 553.464 233.69C553.464 235.978 552.84 238.032 551.592 239.852C550.344 241.62 548.602 243.024 546.366 244.064C544.13 245.104 541.556 245.624 538.644 245.624ZM570.84 207.014V233.456C570.84 236.056 571.334 237.85 572.322 238.838C573.31 239.826 575.052 240.32 577.548 240.32H582.54V245H576.69C572.842 245 569.982 244.116 568.11 242.348C566.238 240.528 565.302 237.564 565.302 233.456V207.014H559.374V202.412H565.302V191.726H570.84V202.412H582.54V207.014H570.84Z" fill="white"/>
<path d="M187.746 304.842C190.814 305.414 193.414 306.974 195.546 309.522C197.678 312.07 198.744 315.034 198.744 318.414C198.744 321.17 198.042 323.666 196.638 325.902C195.286 328.086 193.284 329.828 190.632 331.128C187.98 332.376 184.808 333 181.116 333H162.24V278.478H180.57C186.082 278.478 190.268 279.752 193.128 282.3C196.04 284.848 197.496 288.15 197.496 292.206C197.496 295.586 196.586 298.342 194.766 300.474C192.946 302.554 190.606 304.01 187.746 304.842ZM167.7 302.58H180.414C184.106 302.58 186.94 301.722 188.916 300.006C190.944 298.238 191.958 295.82 191.958 292.752C191.958 289.736 190.944 287.37 188.916 285.654C186.94 283.938 184.028 283.08 180.18 283.08H167.7V302.58ZM180.726 328.398C184.678 328.398 187.746 327.462 189.93 325.59C192.166 323.718 193.284 321.144 193.284 317.868C193.284 314.592 192.114 311.992 189.774 310.068C187.486 308.092 184.392 307.104 180.492 307.104H167.7V328.398H180.726ZM214.241 275.28V333H208.781V275.28H214.241ZM245.247 333.624C241.243 333.624 237.629 332.74 234.405 330.972C231.233 329.152 228.711 326.604 226.839 323.328C225.019 320 224.109 316.126 224.109 311.706C224.109 307.286 225.045 303.438 226.917 300.162C228.789 296.834 231.337 294.286 234.561 292.518C237.785 290.698 241.399 289.788 245.403 289.788C249.407 289.788 253.021 290.698 256.245 292.518C259.521 294.286 262.069 296.834 263.889 300.162C265.761 303.438 266.697 307.286 266.697 311.706C266.697 316.074 265.761 319.922 263.889 323.25C262.017 326.578 259.443 329.152 256.167 330.972C252.891 332.74 249.251 333.624 245.247 333.624ZM245.247 328.866C248.055 328.866 250.655 328.242 253.047 326.994C255.439 325.694 257.363 323.77 258.819 321.222C260.327 318.622 261.081 315.45 261.081 311.706C261.081 307.962 260.353 304.816 258.897 302.268C257.441 299.668 255.517 297.744 253.125 296.496C250.733 295.196 248.133 294.546 245.325 294.546C242.517 294.546 239.917 295.196 237.525 296.496C235.133 297.744 233.209 299.668 231.753 302.268C230.349 304.816 229.647 307.962 229.647 311.706C229.647 315.45 230.349 318.622 231.753 321.222C233.209 323.77 235.107 325.694 237.447 326.994C239.839 328.242 242.439 328.866 245.247 328.866ZM274.154 311.706C274.154 307.286 275.038 303.438 276.806 300.162C278.574 296.834 281.018 294.286 284.138 292.518C287.258 290.698 290.82 289.788 294.824 289.788C300.076 289.788 304.392 291.088 307.772 293.688C311.204 296.288 313.414 299.824 314.402 304.296H308.552C307.824 301.228 306.238 298.836 303.794 297.12C301.402 295.352 298.412 294.468 294.824 294.468C291.964 294.468 289.39 295.118 287.102 296.418C284.814 297.718 282.994 299.668 281.642 302.268C280.342 304.816 279.692 307.962 279.692 311.706C279.692 315.45 280.342 318.622 281.642 321.222C282.994 323.822 284.814 325.772 287.102 327.072C289.39 328.372 291.964 329.022 294.824 329.022C298.412 329.022 301.402 328.164 303.794 326.448C306.238 324.68 307.824 322.236 308.552 319.116H314.402C313.414 323.484 311.204 326.994 307.772 329.646C304.34 332.298 300.024 333.624 294.824 333.624C290.82 333.624 287.258 332.74 284.138 330.972C281.018 329.152 278.574 326.604 276.806 323.328C275.038 320 274.154 316.126 274.154 311.706ZM347.496 333L329.946 313.89V333H324.486V275.28H329.946V309.444L347.106 290.412H354.75L334.548 311.628L354.906 333H347.496ZM388.593 278.478V312.798C388.593 318.206 389.867 322.21 392.415 324.81C395.015 327.41 398.551 328.71 403.023 328.71C407.495 328.71 410.979 327.436 413.475 324.888C416.023 322.288 417.297 318.258 417.297 312.798V278.478H422.757V312.72C422.757 319.636 420.911 324.836 417.219 328.32C413.579 331.804 408.821 333.546 402.945 333.546C397.069 333.546 392.285 331.804 388.593 328.32C384.953 324.836 383.133 319.636 383.133 312.72V278.478H388.593ZM449.599 333.624C444.711 333.624 440.707 332.506 437.587 330.27C434.519 327.982 432.803 324.888 432.439 320.988H438.055C438.315 323.38 439.433 325.33 441.409 326.838C443.437 328.294 446.141 329.022 449.521 329.022C452.485 329.022 454.799 328.32 456.463 326.916C458.179 325.512 459.037 323.77 459.037 321.69C459.037 320.234 458.569 319.038 457.633 318.102C456.697 317.166 455.501 316.438 454.045 315.918C452.641 315.346 450.717 314.748 448.273 314.124C445.101 313.292 442.527 312.46 440.551 311.628C438.575 310.796 436.885 309.574 435.481 307.962C434.129 306.298 433.453 304.088 433.453 301.332C433.453 299.252 434.077 297.328 435.325 295.56C436.573 293.792 438.341 292.388 440.629 291.348C442.917 290.308 445.517 289.788 448.429 289.788C453.005 289.788 456.697 290.958 459.505 293.298C462.313 295.586 463.821 298.758 464.029 302.814H458.569C458.413 300.318 457.425 298.316 455.605 296.808C453.837 295.248 451.393 294.468 448.273 294.468C445.517 294.468 443.281 295.118 441.565 296.418C439.849 297.718 438.991 299.33 438.991 301.254C438.991 302.918 439.485 304.296 440.473 305.388C441.513 306.428 442.787 307.26 444.295 307.884C445.803 308.456 447.831 309.106 450.379 309.834C453.447 310.666 455.891 311.472 457.711 312.252C459.531 313.032 461.091 314.176 462.391 315.684C463.691 317.192 464.367 319.194 464.419 321.69C464.419 323.978 463.795 326.032 462.547 327.852C461.299 329.62 459.557 331.024 457.321 332.064C455.085 333.104 452.511 333.624 449.599 333.624ZM513.229 309.522C513.229 311.394 513.177 312.824 513.073 313.812H477.739C477.895 317.036 478.675 319.792 480.079 322.08C481.483 324.368 483.329 326.11 485.617 327.306C487.905 328.45 490.401 329.022 493.105 329.022C496.641 329.022 499.605 328.164 501.997 326.448C504.441 324.732 506.053 322.418 506.833 319.506H512.605C511.565 323.666 509.329 327.072 505.897 329.724C502.517 332.324 498.253 333.624 493.105 333.624C489.101 333.624 485.513 332.74 482.341 330.972C479.169 329.152 476.673 326.604 474.853 323.328C473.085 320 472.201 316.126 472.201 311.706C472.201 307.286 473.085 303.412 474.853 300.084C476.621 296.756 479.091 294.208 482.263 292.44C485.435 290.672 489.049 289.788 493.105 289.788C497.161 289.788 500.697 290.672 503.713 292.44C506.781 294.208 509.121 296.6 510.733 299.616C512.397 302.58 513.229 305.882 513.229 309.522ZM507.691 309.366C507.743 306.194 507.093 303.49 505.741 301.254C504.441 299.018 502.647 297.328 500.359 296.184C498.071 295.04 495.575 294.468 492.871 294.468C488.815 294.468 485.357 295.768 482.497 298.368C479.637 300.968 478.051 304.634 477.739 309.366H507.691ZM528.679 297.978C529.875 295.326 531.695 293.272 534.139 291.816C536.635 290.36 539.677 289.632 543.265 289.632V295.326H541.783C537.831 295.326 534.659 296.392 532.267 298.524C529.875 300.656 528.679 304.218 528.679 309.21V333H523.219V290.412H528.679V297.978Z" fill="white"/>
</g>
</svg>
