<svg width="134" height="149" viewBox="0 0 134 149" fill="none" xmlns="http://www.w3.org/2000/svg">
<path d="M76.0991 139.23C76.0991 144.2 72.0697 148.23 67.0991 148.23V148.23C62.1286 148.23 58.0991 144.2 58.0991 139.23L58.0991 14.1292H76.0991L76.0991 139.23Z" fill="white"/>
<path d="M127.073 59.5321C130.401 63.2241 129.924 68.6974 126.006 71.7572V71.7572C122.089 74.8169 116.216 74.3043 112.888 70.6123L63.8582 16.2203L78.0437 5.14002L127.073 59.5321Z" fill="white"/>
<path d="M6.02564 59.5321C2.69764 63.2241 3.17529 68.6974 7.0925 71.7572V71.7572C11.0097 74.8169 16.8831 74.3043 20.2111 70.6123L69.2406 16.2203L55.0551 5.14002L6.02564 59.5321Z" fill="white"/>
<ellipse cx="66.6106" cy="13.7534" rx="14.7752" ry="13.7539" transform="rotate(-180 66.6106 13.7534)" fill="white"/>
</svg>
