<svg id="eLnXCsdjSiK1" xmlns="http://www.w3.org/2000/svg" xmlns:xlink="http://www.w3.org/1999/xlink" viewBox="0 0 1130 450" shape-rendering="geometricPrecision" text-rendering="geometricPrecision"><defs><linearGradient id="eLnXCsdjSiK7-fill" x1="18.2" y1="0" x2="18.3" y2="34" spreadMethod="pad" gradientUnits="userSpaceOnUse" gradientTransform="translate(0 0)"><stop id="eLnXCsdjSiK7-fill-0" offset="0%" stop-color="#5ab7fa"/><stop id="eLnXCsdjSiK7-fill-1" offset="100%" stop-color="#ff42a7"/></linearGradient></defs><g transform="matrix(.956824 0 0 0.956817-580.906788 6.165682)"><path d="M420.634,10h-333.9495C70.2902,10,57,23.2902,57,39.6845v115.0275c0,16.394,13.2902,29.685,29.6845,29.685h333.9495c16.395,0,29.685-13.291,29.685-29.685v-115.0275C450.319,23.2902,437.029,10,420.634,10Z" transform="translate(734.12 0)" fill="#5ab7fa"/><path d="M183.715,77.0803c0,7.9151-1.854,15.1506-5.566,21.7068-3.586,6.4309-9.09,11.6259-16.511,15.5839-7.298,3.835-16.265,5.751-26.902,5.751h-17.996v44.156h-36.3635v-130.7971h54.3595c10.513,0,19.419,1.8553,26.716,5.5658c7.421,3.7106,12.987,8.8435,16.697,15.3988c3.712,6.5553,5.566,14.1002,5.566,22.6348ZM131.211,91.1797c10.266,0,15.399-4.6994,15.399-14.0994c0-9.5241-5.133-14.286-15.399-14.286h-14.471v28.3854h14.471ZM266.784,59.2693c11.875,0,21.274,4.0197,28.2,12.0593c7.051,7.9161,10.575,18.676,10.575,32.2814v60.668h-36.362v-55.844c0-5.937-1.547-10.5753-4.639-13.9148-3.092-3.4623-7.236-5.194-12.431-5.194-5.442,0-9.708,1.7317-12.801,5.194-3.092,3.3395-4.638,7.9778-4.638,13.9148v55.844h-36.363v-137.2906h36.363v48.0514c3.216-4.6994,7.545-8.4721,12.987-11.3168c5.565-2.9685,11.936-4.4527,19.109-4.4527ZM373.935,165.577c-10.389,0-19.728-2.164-28.015-6.494-8.162-4.329-14.594-10.513-19.294-18.552-4.701-8.04-7.05-17.502-7.05-28.386c0-10.761,2.349-20.1608,7.05-28.2009c4.823-8.0389,11.317-14.2233,19.48-18.5524c8.287-4.329,17.625-6.4935,28.015-6.4935s19.666,2.1645,27.83,6.4935c8.286,4.3291,14.78,10.5135,19.48,18.5524c4.823,8.0401,7.236,17.4399,7.236,28.2009c0,10.76-2.413,20.222-7.236,28.386-4.7,8.039-11.194,14.223-19.48,18.552-8.287,4.33-17.626,6.494-28.016,6.494Zm0-31.54c5.072,0,9.277-1.855,12.616-5.566c3.463-3.834,5.195-9.276,5.195-16.326c0-7.051-1.732-12.4306-5.195-16.1408-3.339-3.7113-7.482-5.5659-12.43-5.5659-4.947,0-9.091,1.8546-12.43,5.5659-3.34,3.7102-5.01,9.0898-5.01,16.1408c0,7.174,1.608,12.616,4.824,16.326c3.216,3.711,7.359,5.566,12.43,5.566Z" transform="translate(734.12 0)" fill="#fff"/><path d="M535.106,133.295v30.983h-15.771c-26.592,0-39.888-13.172-39.888-39.517v-34.3227h-12.801v-30.2414h12.801v-25.2318h36.549v25.2318h18.924v30.2414h-18.924v34.8787c0,2.845.618,4.886,1.856,6.123c1.361,1.237,3.587,1.855,6.679,1.855h10.575Zm65.102,32.282c-10.391,0-19.729-2.164-28.016-6.494-8.162-4.329-14.595-10.513-19.294-18.552-4.701-8.04-7.051-17.502-7.051-28.386c0-10.761,2.35-20.1608,7.051-28.2009c4.823-8.0389,11.316-14.2233,19.48-18.5524c8.287-4.329,17.625-6.4935,28.014-6.4935c10.391,0,19.667,2.1645,27.83,6.4935c8.286,4.3291,14.781,10.5135,19.48,18.5524c4.824,8.0401,7.236,17.4399,7.236,28.2009c0,10.76-2.412,20.222-7.236,28.386-4.699,8.039-11.194,14.223-19.48,18.552-8.287,4.33-17.625,6.494-28.014,6.494Zm0-31.54c5.071,0,9.276-1.855,12.615-5.566c3.464-3.834,5.195-9.276,5.195-16.326c0-7.051-1.731-12.4306-5.195-16.1408-3.339-3.7113-7.483-5.5659-12.431-5.5659-4.947,0-9.09,1.8546-12.429,5.5659-3.34,3.7102-5.01,9.0898-5.01,16.1408c0,7.174,1.608,12.616,4.824,16.326c3.215,3.711,7.359,5.566,12.431,5.566ZM706.096,74.6681c2.844-4.8234,6.864-8.6579,12.06-11.5027c5.194-2.8448,11.316-4.2672,18.367-4.2672c8.287,0,15.769,2.1645,22.448,6.4935c6.803,4.3291,12.122,10.5135,15.956,18.5524c3.958,8.0401,5.937,17.4399,5.937,28.2009c0,10.76-1.979,20.222-5.937,28.386-3.834,8.039-9.153,14.223-15.956,18.552-6.679,4.33-14.161,6.494-22.448,6.494-7.051,0-13.173-1.423-18.367-4.268-5.072-2.845-9.092-6.679-12.06-11.502v64.193h-36.363v-153.8031h36.363v14.4712Zm37.847,37.4769c0-6.803-1.854-12.06-5.566-15.7701-3.586-3.8341-8.039-5.7517-13.358-5.7517-5.318,0-9.832,1.9176-13.542,5.7517-3.588,3.8341-5.381,9.0911-5.381,15.7701c0,6.802,1.793,12.121,5.381,15.955c3.71,3.834,8.224,5.752,13.542,5.752c5.319,0,9.772-1.918,13.358-5.752c3.712-3.958,5.566-9.276,5.566-15.955Z" transform="translate(734.12 0)" fill="#5ab7fa"/></g><g transform="translate(-645.1623 14.465343)"><rect width="36.4" height="57" rx="0" ry="0" transform="matrix(.959826 0 0 1 1407.431238 195.459177)" fill="url(#eLnXCsdjSiK7-fill)"/><path d="M108.27,273.985v70.069h35.034c4.801,0,9.318-.895,13.55-2.686c4.231-1.872,7.934-4.394,11.108-7.568s5.656-6.877,7.446-11.109c1.872-4.313,2.808-8.87,2.808-13.671c0-4.802-.936-9.319-2.808-13.55-1.79-4.313-4.272-8.057-7.446-11.231s-6.877-5.656-11.108-7.446c-4.232-1.872-8.749-2.808-13.55-2.808h-35.034Zm0,140.015h-35.0346v-175.049h70.0686c6.429,0,12.614.855,18.554,2.564c5.941,1.627,11.475,3.987,16.602,7.08c5.208,3.011,9.928,6.673,14.16,10.986c4.313,4.232,7.975,8.952,10.986,14.16c3.093,5.209,5.453,10.783,7.081,16.724c1.709,5.941,2.563,12.125,2.563,18.555c0,9.602-1.831,18.676-5.493,27.221-3.662,8.464-8.667,15.869-15.015,22.217-6.347,6.348-13.794,11.353-22.339,15.015-8.463,3.662-17.496,5.493-27.099,5.493h-35.034v35.034ZM268.914,273.985v70.069h35.034c4.802,0,9.318-.895,13.55-2.686c4.232-1.872,7.935-4.394,11.108-7.568c3.174-3.174,5.656-6.877,7.447-11.109c1.871-4.313,2.807-8.87,2.807-13.671c0-4.802-.936-9.319-2.807-13.55-1.791-4.313-4.273-8.057-7.447-11.231-3.173-3.174-6.876-5.656-11.108-7.446-4.232-1.872-8.748-2.808-13.55-2.808h-35.034Zm0,140.015h-35.034v-175.049h70.068c6.429,0,12.614.855,18.555,2.564c5.941,1.627,11.475,3.987,16.601,7.08c5.209,3.011,9.929,6.673,14.161,10.986c4.313,4.232,7.975,8.952,10.986,14.16c3.092,5.209,5.452,10.783,7.08,16.724c1.709,5.941,2.564,12.125,2.564,18.555c0,6.022-.774,11.881-2.32,17.578-1.465,5.696-3.621,11.108-6.47,16.235-2.766,5.127-6.184,9.847-10.253,14.16s-8.627,8.057-13.672,11.231L360.589,414h-37.232l-15.258-35.278-39.185.244v35.034Zm248.047,0h-119.995v-175.049h119.995v35.034h-84.961v35.035h57.495v35.034h-57.495v34.912h84.961v35.034Zm198.242,0h-34.912v-125c0-2.441-.488-4.72-1.465-6.836-.895-2.116-2.156-3.947-3.784-5.493-1.546-1.628-3.377-2.889-5.493-3.784s-4.395-1.343-6.836-1.343c-2.442,0-4.72.448-6.836,1.343s-3.988,2.156-5.615,3.784c-1.547,1.546-2.767,3.377-3.662,5.493-.896,2.116-1.343,4.395-1.343,6.836v125h-35.034v-125c0-2.441-.448-4.72-1.343-6.836s-2.157-3.947-3.784-5.493c-1.547-1.628-3.378-2.889-5.493-3.784-2.116-.895-4.395-1.343-6.836-1.343-2.442,0-4.72.448-6.836,1.343s-3.988,2.156-5.616,3.784c-1.546,1.546-2.766,3.377-3.662,5.493-.895,2.116-1.342,4.395-1.342,6.836v125h-35.035v-125c0-7.243,1.343-14.038,4.029-20.386c2.767-6.429,6.51-12.003,11.23-16.723c4.802-4.802,10.376-8.545,16.724-11.231c6.429-2.767,13.265-4.15,20.508-4.15c6.51,0,12.776,1.18,18.798,3.54c6.023,2.278,11.434,5.615,16.236,10.01c4.801-4.395,10.172-7.732,16.113-10.01c6.022-2.36,12.288-3.54,18.799-3.54c7.243,0,14.038,1.383,20.386,4.15c6.429,2.686,12.003,6.429,16.723,11.231c4.802,4.72,8.545,10.294,11.231,16.723c2.767,6.348,4.15,13.143,4.15,20.386v125Zm66.406,0h-35.034v-175.049h35.034v175.049Zm170.655-69.946c0,9.684-1.831,18.799-5.493,27.343-3.663,8.464-8.667,15.87-15.015,22.217-6.348,6.267-13.794,11.231-22.339,14.893-8.464,3.662-17.537,5.493-27.222,5.493-9.684,0-18.799-1.831-27.343-5.493-8.464-3.662-15.87-8.626-22.217-14.893-6.267-6.347-11.231-13.753-14.893-22.217-3.662-8.544-5.493-17.659-5.493-27.343v-105.103h34.912v105.103c0,4.801.895,9.318,2.686,13.55c1.871,4.231,4.394,7.934,7.568,11.108s6.877,5.697,11.108,7.568c4.314,1.791,8.871,2.686,13.672,2.686c4.802,0,9.318-.895,13.55-2.686c4.313-1.871,8.057-4.394,11.231-7.568c3.173-3.174,5.656-6.877,7.446-11.108c1.872-4.232,2.807-8.749,2.807-13.55v-105.103h35.035v105.103ZM1156.37,414h-34.92v-125c0-2.441-.49-4.72-1.46-6.836-.9-2.116-2.16-3.947-3.79-5.493-1.54-1.628-3.37-2.889-5.49-3.784-2.11-.895-4.39-1.343-6.83-1.343-2.45,0-4.73.448-6.84,1.343-2.12.895-3.99,2.156-5.62,3.784-1.54,1.546-2.76,3.377-3.66,5.493-.89,2.116-1.34,4.395-1.34,6.836v125h-35.04v-125c0-2.441-.44-4.72-1.34-6.836-.89-2.116-2.15-3.947-3.78-5.493-1.55-1.628-3.38-2.889-5.5-3.784-2.11-.895-4.39-1.343-6.83-1.343s-4.72.448-6.84,1.343c-2.11.895-3.98,2.156-5.61,3.784-1.55,1.546-2.77,3.377-3.66,5.493-.9,2.116-1.35,4.395-1.35,6.836v125h-35.032v-125c0-7.243,1.343-14.038,4.029-20.386c2.767-6.429,6.51-12.003,11.23-16.723c4.803-4.802,10.373-8.545,16.723-11.231c6.43-2.767,13.27-4.15,20.51-4.15c6.51,0,12.78,1.18,18.8,3.54c6.02,2.278,11.43,5.615,16.23,10.01c4.8-4.395,10.18-7.732,16.12-10.01c6.02-2.36,12.28-3.54,18.8-3.54c7.24,0,14.03,1.383,20.38,4.15c6.43,2.686,12,6.429,16.72,11.231c4.81,4.72,8.55,10.294,11.23,16.723c2.77,6.348,4.16,13.143,4.16,20.386v125Z" transform="translate(595.1973-4.01)" fill="#ff42a7"/></g></svg>
